<svg xmlns="http://www.w3.org/2000/svg" witdh="465px" height="400px">
<polyline points="80.0,130.0 81.0,130.0 82.0,130.0 82.0,128.0 82.0,126.0 81.0,125.0 78.0,125.0 80.0,126.0 80.0,125.0 80.0,124.0 81.0,123.0 80.0,122.0 79.0,122.0 78.0,120.0 76.0,121.0 75.0,123.0 76.0,122.0 76.0,121.0 75.0,121.0 74.0,120.0 73.0,119.0 72.0,120.0 70.0,121.0 70.0,123.0 71.0,124.0 71.0,123.0 70.0,123.0 69.0,124.0 70.0,122.0 68.0,120.0 66.0,121.0 62.0,119.0 59.0,123.0 60.0,127.0 60.0,125.0 59.0,123.0 57.0,124.0 55.0,122.0 53.0,123.0 52.0,125.0 49.0,128.0 50.0,132.0 55.0,133.0 53.0,132.0 51.0,132.0 50.0,135.0 48.0,135.0 48.0,137.0 49.0,139.0 50.0,143.0 55.0,144.0 58.0,141.0 56.0,142.0 55.0,144.0 57.0,145.0 58.0,146.0 59.0,145.0 58.0,144.0 59.0,142.0 57.0,140.0 55.0,141.0 56.0,141.0 57.0,140.0 57.0,139.0 57.0,138.0 57.0,137.0 56.0,137.0 55.0,135.0 52.0,136.0 52.0,138.0 53.0,137.0 52.0,136.0 51.0,136.0 51.0,135.0 50.0,135.0 49.0,135.0 47.0,136.0 46.0,138.0 48.0,140.0 48.0,139.0 47.0,138.0 46.0,139.0 46.0,139.0 47.0,138.0 46.0,137.0 45.0,137.0 44.0,135.0 42.0,136.0 41.0,138.0 42.0,137.0 42.0,136.0 40.0,136.0 40.0,135.0 39.0,135.0 38.0,135.0 36.0,136.0 36.0,138.0 37.0,140.0 37.0,139.0 36.0,138.0 35.0,139.0 34.0,139.0 33.0,140.0 33.0,141.0 33.0,143.0 34.0,144.0 37.0,144.0 36.0,144.0 35.0,144.0 35.0,145.0 33.0,144.0 31.0,144.0 31.0,147.0 28.0,150.0 29.0,154.0 33.0,155.0 31.0,154.0 29.0,154.0 29.0,156.0 27.0,157.0 26.0,159.0 28.0,160.0 29.0,165.0 33.0,166.0 36.0,163.0 34.0,163.0 33.0,165.0 35.0,167.0 34.0,169.0 36.0,171.0 38.0,170.0 42.0,171.0 46.0,168.0 44.0,164.0 44.0,166.0 45.0,168.0 48.0,167.0 48.0,166.0 48.0,165.0 47.0,165.0 45.0,163.0 43.0,164.0 43.0,166.0 43.0,165.0 43.0,164.0 42.0,164.0 42.0,163.0 41.0,163.0 40.0,163.0 38.0,164.0 37.0,166.0 39.0,168.0 39.0,167.0 37.0,166.0 37.0,167.0 36.0,167.0 35.0,168.0 35.0,169.0 35.0,171.0 36.0,172.0 38.0,172.0 37.0,171.0 36.0,172.0 37.0,173.0 37.0,173.0 36.0,172.0 35.0,172.0 35.0,173.0 32.0,173.0 32.0,175.0 33.0,177.0 33.0,176.0 32.0,176.0 31.0,176.0 30.0,176.0 29.0,177.0 30.0,178.0 29.0,180.0 31.0,182.0 33.0,181.0 32.0,181.0 31.0,182.0 31.0,183.0 31.0,183.0 31.0,185.0 32.0,185.0 33.0,186.0 36.0,186.0 36.0,184.0 35.0,184.0 36.0,186.0 37.0,186.0 35.0,186.0 34.0,189.0 36.0,190.0 37.0,194.0 41.0,195.0 44.0,192.0 42.0,193.0 41.0,195.0 43.0,197.0 42.0,199.0 44.0,200.0 46.0,200.0 50.0,201.0 53.0,198.0 52.0,194.0 52.0,196.0 53.0,197.0 55.0,197.0 57.0,198.0 59.0,198.0 60.0,195.0 63.0,192.0 62.0,188.0 57.0,187.0 59.0,189.0 61.0,188.0 62.0,186.0 61.0,185.0 60.0,184.0 60.0,185.0 57.0,186.0 57.0,188.0 58.0,189.0 58.0,188.0 57.0,188.0 56.0,189.0 55.0,189.0 54.0,189.0 55.0,190.0 54.0,193.0 56.0,194.0 58.0,194.0 57.0,193.0 56.0,194.0 56.0,195.0 56.0,196.0 56.0,197.0 57.0,197.0 58.0,199.0 61.0,198.0 61.0,196.0 60.0,197.0 61.0,198.0 62.0,198.0 62.0,196.0 61.0,195.0 59.0,195.0 54.0,194.0 51.0,197.0 52.0,201.0 53.0,199.0 51.0,198.0 49.0,198.0 48.0,197.0 46.0,197.0 45.0,199.0 42.0,203.0 43.0,207.0 47.0,208.0 46.0,206.0 44.0,207.0 43.0,209.0 41.0,210.0 40.0,212.0 42.0,213.0 43.0,218.0 47.0,219.0 50.0,216.0 48.0,216.0 48.0,218.0 49.0,220.0 49.0,220.0 45.0,219.0 42.0,222.0 43.0,226.0 41.0,235.0 47.0,241.0 55.0,239.0 51.0,238.0 48.0,241.0 49.0,245.0 46.0,248.0 47.0,252.0 51.0,253.0 58.0,260.0 66.0,257.0 69.0,249.0 65.0,252.0 67.0,256.0 71.0,257.0 72.0,262.0 76.0,263.0 79.0,260.0 88.0,257.0 90.0,249.0 84.0,243.0 85.0,247.0 89.0,248.0 93.0,245.0 93.0,243.0 92.0,241.0 89.0,242.0 85.0,241.0 82.0,244.0 83.0,248.0 84.0,246.0 82.0,244.0 80.0,245.0 78.0,243.0 76.0,244.0 76.0,246.0 73.0,249.0 74.0,253.0 78.0,255.0 76.0,253.0 74.0,254.0 74.0,256.0 72.0,256.0 71.0,258.0 73.0,260.0 74.0,264.0 78.0,265.0 81.0,262.0 79.0,263.0 78.0,265.0 80.0,267.0 80.0,267.0 78.0,265.0 76.0,266.0 76.0,268.0 73.0,271.0 74.0,275.0 78.0,276.0 76.0,275.0 74.0,275.0 74.0,277.0 72.0,278.0 71.0,280.0 73.0,282.0 74.0,286.0 78.0,287.0 81.0,284.0 79.0,285.0 78.0,287.0 80.0,288.0 79.0,290.0 81.0,292.0 83.0,291.0 87.0,293.0 91.0,289.0 89.0,285.0 89.0,287.0 90.0,289.0 92.0,288.0 89.0,291.0 91.0,296.0 95.0,297.0 101.0,303.0 110.0,301.0 112.0,292.0 109.0,295.0 110.0,300.0 114.0,301.0 115.0,305.0 120.0,306.0 123.0,303.0 131.0,301.0 134.0,292.0 127.0,286.0 128.0,290.0 133.0,291.0 136.0,288.0 140.0,289.0 143.0,286.0 142.0,282.0 144.0,273.0 138.0,267.0 130.0,270.0 134.0,271.0 137.0,268.0 136.0,263.0 134.0,262.0 132.0,262.0 132.0,264.0 128.0,268.0 130.0,272.0 134.0,273.0 132.0,271.0 130.0,272.0 130.0,274.0 127.0,275.0 127.0,277.0 128.0,278.0 130.0,283.0 134.0,284.0 137.0,281.0 135.0,281.0 134.0,283.0 136.0,285.0 135.0,287.0 137.0,289.0 139.0,288.0 143.0,289.0 146.0,286.0 145.0,282.0 145.0,284.0 146.0,285.0 148.0,285.0 146.0,285.0 146.0,288.0 147.0,289.0 148.0,293.0 153.0,295.0 156.0,291.0 154.0,292.0 153.0,294.0 155.0,296.0 154.0,298.0 156.0,299.0 158.0,299.0 162.0,300.0 165.0,297.0 164.0,293.0 163.0,295.0 165.0,296.0 167.0,296.0 169.0,297.0 171.0,297.0 171.0,295.0 174.0,291.0 173.0,287.0 169.0,286.0 171.0,288.0 173.0,287.0 173.0,285.0 174.0,289.0 179.0,290.0 182.0,287.0 190.0,285.0 193.0,276.0 186.0,270.0 188.0,274.0 192.0,276.0 195.0,272.0 199.0,274.0 202.0,270.0 201.0,266.0 203.0,258.0 197.0,251.0 189.0,254.0 193.0,255.0 196.0,252.0 195.0,247.0 198.0,244.0 197.0,240.0 193.0,239.0 186.0,233.0 178.0,235.0 176.0,243.0 179.0,240.0 178.0,236.0 173.0,235.0 171.0,235.0 171.0,238.0 172.0,239.0 173.0,243.0 178.0,245.0 181.0,241.0 179.0,242.0 178.0,244.0 180.0,246.0 179.0,248.0 181.0,249.0 183.0,249.0 187.0,250.0 190.0,247.0 189.0,243.0 188.0,245.0 190.0,246.0 192.0,246.0 194.0,247.0 196.0,247.0 196.0,245.0 199.0,241.0 198.0,237.0 194.0,236.0 196.0,238.0 198.0,237.0 198.0,235.0 199.0,235.0 200.0,234.0 200.0,233.0 200.0,231.0 199.0,230.0 197.0,230.0 198.0,231.0 199.0,230.0 198.0,229.0 199.0,228.0 199.0,227.0 198.0,227.0 196.0,225.0 194.0,226.0 193.0,228.0 194.0,227.0 194.0,226.0 193.0,226.0 193.0,224.0 192.0,224.0 191.0,225.0 189.0,226.0 188.0,228.0 190.0,229.0 189.0,228.0 188.0,228.0 187.0,229.0 188.0,227.0 186.0,225.0 184.0,226.0 180.0,224.0 177.0,228.0 178.0,232.0 179.0,230.0 177.0,228.0 175.0,229.0 173.0,227.0 171.0,228.0 171.0,230.0 168.0,233.0 169.0,237.0 173.0,238.0 171.0,237.0 169.0,237.0 169.0,239.0 167.0,240.0 166.0,242.0 168.0,244.0 169.0,248.0 173.0,249.0 176.0,246.0 174.0,247.0 173.0,249.0 175.0,250.0 176.0,251.0 177.0,250.0 177.0,249.0 177.0,247.0 176.0,245.0 173.0,246.0 174.0,246.0 175.0,245.0 175.0,244.0 176.0,243.0 175.0,242.0 174.0,242.0 173.0,240.0 171.0,241.0 170.0,243.0 171.0,242.0 171.0,241.0 170.0,241.0 169.0,240.0 168.0,240.0 167.0,240.0 165.0,241.0 165.0,243.0 166.0,245.0 166.0,244.0 165.0,243.0 164.0,244.0 165.0,243.0 165.0,242.0 164.0,242.0 162.0,240.0 160.0,241.0 159.0,243.0 160.0,242.0 160.0,241.0 159.0,241.0 158.0,240.0 157.0,240.0 157.0,240.0 154.0,241.0 154.0,243.0 155.0,245.0 155.0,244.0 154.0,243.0 153.0,244.0 152.0,244.0 151.0,245.0 152.0,246.0 151.0,248.0 153.0,249.0 155.0,249.0 154.0,248.0 153.0,249.0 153.0,250.0 152.0,249.0 150.0,249.0 149.0,251.0 146.0,255.0 147.0,259.0 151.0,260.0 150.0,258.0 148.0,259.0 147.0,261.0 145.0,262.0 144.0,264.0 146.0,265.0 147.0,270.0 151.0,271.0 154.0,268.0 152.0,268.0 152.0,270.0 153.0,272.0 153.0,274.0 154.0,276.0 156.0,275.0 161.0,276.0 164.0,273.0 163.0,269.0 162.0,271.0 164.0,273.0 166.0,272.0 167.0,271.0 166.0,270.0 165.0,270.0 164.0,268.0 162.0,269.0 161.0,271.0 162.0,270.0 161.0,269.0 160.0,269.0 160.0,268.0 159.0,267.0 158.0,268.0 156.0,269.0 156.0,271.0 157.0,273.0 157.0,271.0 156.0,271.0 155.0,272.0 154.0,272.0 153.0,272.0 153.0,274.0 153.0,276.0 154.0,277.0 157.0,277.0 155.0,276.0 155.0,277.0 155.0,278.0 155.0,277.0 154.0,277.0 153.0,278.0 151.0,278.0 150.0,280.0 152.0,282.0 151.0,281.0 150.0,281.0 150.0,281.0 149.0,281.0 148.0,282.0 148.0,283.0 147.0,285.0 149.0,287.0 151.0,286.0 150.0,286.0 149.0,287.0 150.0,288.0 149.0,288.0 149.0,289.0 150.0,290.0 152.0,291.0 154.0,291.0 154.0,289.0 154.0,289.0 154.0,290.0 155.0,291.0 153.0,291.0 152.0,293.0 154.0,295.0 155.0,299.0 159.0,300.0 162.0,297.0 160.0,298.0 160.0,300.0 161.0,302.0 161.0,304.0 162.0,305.0 164.0,305.0 169.0,306.0 172.0,303.0 171.0,298.0 170.0,301.0 172.0,302.0 174.0,302.0 175.0,303.0 177.0,303.0 178.0,300.0 181.0,297.0 180.0,293.0 176.0,292.0 177.0,293.0 179.0,293.0 180.0,291.0 180.0,290.0 179.0,289.0 178.0,290.0 176.0,291.0 175.0,293.0 177.0,294.0 176.0,293.0 175.0,293.0 175.0,294.0 174.0,294.0 173.0,294.0 173.0,295.0 172.0,298.0 174.0,299.0 176.0,299.0 175.0,298.0 174.0,299.0 175.0,300.0 174.0,301.0 174.0,302.0 175.0,302.0 177.0,304.0 179.0,303.0 179.0,301.0 179.0,302.0 179.0,303.0 180.0,303.0 180.0,303.0 180.0,302.0 179.0,302.0 178.0,303.0 176.0,303.0 175.0,305.0 177.0,307.0 176.0,306.0 175.0,306.0 175.0,306.0 174.0,306.0 173.0,307.0 173.0,308.0 172.0,310.0 174.0,312.0 176.0,311.0 175.0,311.0 174.0,312.0 175.0,313.0 174.0,313.0 174.0,314.0 175.0,315.0 177.0,316.0 179.0,316.0 179.0,314.0 179.0,314.0 179.0,315.0 180.0,316.0 178.0,316.0 177.0,318.0 179.0,320.0 180.0,324.0 184.0,325.0 187.0,322.0 185.0,323.0 185.0,325.0 186.0,327.0 186.0,329.0 187.0,330.0 189.0,330.0 194.0,331.0 197.0,328.0 196.0,323.0 195.0,326.0 197.0,327.0 199.0,327.0 200.0,328.0 202.0,328.0 203.0,325.0 206.0,322.0 205.0,318.0 201.0,317.0 202.0,318.0 204.0,318.0 205.0,316.0 205.0,315.0 204.0,314.0 203.0,315.0 201.0,316.0 200.0,318.0 202.0,319.0 201.0,318.0 200.0,318.0 200.0,319.0 199.0,319.0 198.0,319.0 198.0,320.0 197.0,323.0 199.0,324.0 201.0,324.0 200.0,323.0 199.0,324.0 200.0,325.0 199.0,326.0 199.0,327.0 200.0,327.0 202.0,329.0 204.0,328.0 204.0,326.0 204.0,327.0 204.0,328.0 205.0,328.0 204.0,328.0 203.0,329.0 203.0,330.0 203.0,332.0 204.0,333.0 207.0,333.0 205.0,333.0 205.0,333.0 205.0,334.0 204.0,335.0 205.0,336.0 206.0,337.0 207.0,338.0 209.0,338.0 210.0,335.0 209.0,336.0 209.0,337.0 210.0,338.0 211.0,339.0 212.0,339.0 213.0,338.0 215.0,338.0 215.0,335.0 214.0,334.0 214.0,335.0 215.0,335.0 216.0,334.0 215.0,337.0 217.0,338.0 219.0,338.0 223.0,339.0 226.0,336.0 225.0,331.0 225.0,333.0 226.0,335.0 228.0,334.0 230.0,336.0 232.0,335.0 233.0,333.0 236.0,330.0 235.0,326.0 230.0,325.0 232.0,326.0 234.0,326.0 235.0,324.0 237.0,323.0 237.0,321.0 236.0,319.0 235.0,315.0 230.0,314.0 227.0,317.0 229.0,317.0 230.0,314.0 228.0,313.0 227.0,313.0 226.0,313.0 227.0,314.0 226.0,317.0 228.0,318.0 230.0,317.0 229.0,317.0 228.0,318.0 228.0,319.0 228.0,320.0 228.0,321.0 229.0,321.0 230.0,323.0 233.0,322.0 233.0,320.0 232.0,321.0 233.0,322.0 234.0,322.0 234.0,323.0 235.0,324.0 236.0,323.0 238.0,322.0 239.0,320.0 237.0,318.0 237.0,320.0 238.0,320.0 239.0,319.0 238.0,320.0 239.0,321.0 240.0,321.0 241.0,323.0 243.0,322.0 244.0,320.0 243.0,321.0 243.0,322.0 245.0,322.0 245.0,323.0 246.0,324.0 247.0,323.0 249.0,322.0 249.0,320.0 248.0,318.0 248.0,320.0 249.0,320.0 250.0,319.0 251.0,319.0 252.0,319.0 252.0,317.0 252.0,315.0 251.0,314.0 248.0,314.0 249.0,315.0 250.0,314.0 250.0,313.0 252.0,314.0 254.0,314.0 254.0,312.0 257.0,309.0 256.0,304.0 252.0,303.0 254.0,305.0 256.0,304.0 256.0,302.0 258.0,301.0 259.0,299.0 257.0,298.0 256.0,293.0 252.0,292.0 249.0,295.0 251.0,295.0 252.0,293.0 250.0,291.0 251.0,289.0 249.0,287.0 247.0,288.0 243.0,287.0 239.0,290.0 241.0,294.0 241.0,292.0 240.0,291.0 237.0,291.0 237.0,292.0 237.0,293.0 238.0,293.0 240.0,295.0 242.0,294.0 242.0,292.0 242.0,293.0 242.0,294.0 243.0,294.0 243.0,295.0 244.0,296.0 245.0,295.0 247.0,294.0 248.0,292.0 246.0,291.0 246.0,292.0 248.0,292.0 248.0,291.0 249.0,291.0 250.0,291.0 250.0,290.0 250.0,287.0 249.0,286.0 247.0,286.0 248.0,287.0 249.0,286.0 248.0,285.0 246.0,285.0 246.0,288.0 247.0,289.0 248.0,293.0 253.0,295.0 256.0,291.0 254.0,292.0 253.0,294.0 255.0,296.0 254.0,298.0 256.0,299.0 258.0,299.0 262.0,300.0 265.0,297.0 264.0,293.0 263.0,295.0 265.0,296.0 267.0,296.0 269.0,297.0 271.0,297.0 271.0,295.0 274.0,291.0 273.0,287.0 269.0,286.0 271.0,288.0 273.0,287.0 273.0,285.0 274.0,289.0 279.0,290.0 282.0,287.0 290.0,285.0 293.0,276.0 286.0,270.0 288.0,274.0 292.0,276.0 295.0,272.0 299.0,274.0 302.0,270.0 301.0,266.0 303.0,258.0 297.0,251.0 289.0,254.0 293.0,255.0 296.0,252.0 295.0,247.0 298.0,244.0 297.0,240.0 293.0,239.0 286.0,233.0 278.0,235.0 276.0,243.0 279.0,240.0 278.0,236.0 273.0,235.0 271.0,235.0 271.0,238.0 272.0,239.0 273.0,243.0 278.0,245.0 281.0,241.0 279.0,242.0 278.0,244.0 280.0,246.0 279.0,248.0 281.0,249.0 283.0,249.0 287.0,250.0 290.0,247.0 289.0,243.0 288.0,245.0 290.0,246.0 292.0,246.0 294.0,247.0 296.0,247.0 296.0,245.0 299.0,241.0 298.0,237.0 294.0,236.0 296.0,238.0 298.0,237.0 298.0,235.0 298.0,237.0 299.0,239.0 301.0,238.0 306.0,239.0 309.0,236.0 308.0,232.0 307.0,234.0 309.0,235.0 311.0,235.0 312.0,236.0 314.0,236.0 315.0,234.0 318.0,231.0 317.0,226.0 313.0,225.0 314.0,227.0 316.0,226.0 317.0,224.0 319.0,224.0 320.0,221.0 318.0,220.0 317.0,216.0 313.0,214.0 310.0,218.0 312.0,217.0 312.0,215.0 311.0,213.0 315.0,214.0 318.0,211.0 317.0,207.0 319.0,198.0 313.0,192.0 305.0,195.0 309.0,196.0 312.0,193.0 311.0,188.0 314.0,185.0 313.0,181.0 309.0,180.0 302.0,173.0 294.0,176.0 291.0,184.0 295.0,181.0 293.0,177.0 289.0,176.0 288.0,171.0 284.0,170.0 281.0,173.0 272.0,176.0 270.0,184.0 276.0,191.0 275.0,186.0 271.0,185.0 268.0,188.0 268.0,188.0 267.0,190.0 268.0,192.0 271.0,191.0 275.0,193.0 278.0,189.0 277.0,185.0 276.0,187.0 278.0,189.0 280.0,188.0 282.0,190.0 284.0,189.0 284.0,187.0 287.0,184.0 286.0,180.0 282.0,179.0 284.0,180.0 286.0,180.0 286.0,177.0 288.0,177.0 289.0,175.0 287.0,173.0 286.0,169.0 282.0,168.0 279.0,171.0 281.0,170.0 282.0,168.0 280.0,167.0 282.0,168.0 284.0,168.0 284.0,165.0 287.0,162.0 286.0,158.0 282.0,157.0 284.0,158.0 286.0,158.0 286.0,156.0 288.0,155.0 289.0,153.0 287.0,152.0 286.0,147.0 282.0,146.0 279.0,149.0 281.0,149.0 282.0,147.0 280.0,145.0 281.0,143.0 279.0,141.0 277.0,142.0 273.0,141.0 269.0,144.0 271.0,148.0 271.0,146.0 270.0,144.0 268.0,145.0 271.0,142.0 269.0,138.0 265.0,136.0 259.0,130.0 250.0,132.0 248.0,141.0 251.0,138.0 250.0,134.0 246.0,132.0 245.0,128.0 240.0,127.0 237.0,130.0 229.0,132.0 226.0,141.0 233.0,147.0 232.0,143.0 227.0,142.0 224.0,145.0 220.0,144.0 217.0,147.0 218.0,151.0 216.0,160.0 222.0,166.0 230.0,164.0 226.0,163.0 223.0,166.0 224.0,170.0 226.0,172.0 228.0,171.0 228.0,169.0 232.0,166.0 230.0,161.0 226.0,160.0 228.0,162.0 230.0,161.0 230.0,159.0 233.0,159.0 233.0,156.0 232.0,155.0 230.0,151.0 226.0,149.0 223.0,153.0 225.0,152.0 226.0,150.0 224.0,148.0 225.0,146.0 223.0,145.0 221.0,145.0 217.0,144.0 214.0,147.0 215.0,151.0 215.0,149.0 214.0,148.0 212.0,148.0 211.0,147.0 210.0,147.0 210.0,148.0 207.0,148.0 207.0,150.0 208.0,152.0 208.0,151.0 207.0,151.0 206.0,151.0 205.0,151.0 204.0,152.0 205.0,153.0 204.0,155.0 206.0,157.0 208.0,156.0 207.0,156.0 206.0,157.0 206.0,158.0 206.0,158.0 206.0,160.0 207.0,160.0 208.0,161.0 211.0,161.0 211.0,159.0 210.0,159.0 211.0,161.0 212.0,161.0 210.0,161.0 209.0,164.0 211.0,165.0 212.0,169.0 216.0,170.0 219.0,167.0 217.0,168.0 216.0,170.0 218.0,172.0 217.0,174.0 219.0,175.0 221.0,175.0 225.0,176.0 228.0,173.0 227.0,169.0 227.0,171.0 228.0,172.0 230.0,172.0 232.0,173.0 234.0,173.0 235.0,170.0 238.0,167.0 237.0,163.0 232.0,162.0 234.0,164.0 236.0,163.0 237.0,161.0 236.0,160.0 235.0,159.0 235.0,160.0 232.0,161.0 232.0,163.0 233.0,164.0 233.0,163.0 232.0,163.0 231.0,164.0 230.0,164.0 229.0,164.0 230.0,165.0 229.0,168.0 231.0,169.0 233.0,169.0 232.0,168.0 231.0,169.0 231.0,170.0 231.0,171.0 231.0,172.0 232.0,172.0 233.0,174.0 236.0,173.0 236.0,171.0 235.0,172.0 236.0,173.0 237.0,173.0 236.0,173.0 235.0,174.0 235.0,175.0 235.0,177.0 236.0,179.0 238.0,178.0 237.0,178.0 236.0,178.0 237.0,180.0 236.0,180.0 236.0,181.0 237.0,182.0 239.0,183.0 241.0,183.0 242.0,181.0 241.0,181.0 241.0,182.0 242.0,183.0 242.0,184.0 243.0,184.0 244.0,183.0 246.0,183.0 247.0,181.0 245.0,179.0 246.0,180.0 247.0,180.0 248.0,180.0 247.0,182.0 249.0,183.0 251.0,183.0 255.0,184.0 258.0,181.0 257.0,176.0 256.0,179.0 258.0,180.0 260.0,180.0 262.0,181.0 264.0,181.0 264.0,178.0 267.0,175.0 266.0,171.0 262.0,170.0 264.0,171.0 266.0,171.0 266.0,169.0 268.0,168.0 269.0,166.0 267.0,164.0 266.0,160.0 262.0,159.0 259.0,162.0 261.0,162.0 262.0,159.0 260.0,158.0 259.0,158.0 258.0,158.0 258.0,159.0 258.0,162.0 259.0,163.0 262.0,163.0 261.0,162.0 260.0,163.0 260.0,164.0 259.0,165.0 260.0,166.0 261.0,166.0 262.0,168.0 264.0,167.0 265.0,165.0 264.0,166.0 264.0,167.0 265.0,167.0 266.0,168.0 267.0,169.0 268.0,168.0 270.0,167.0 270.0,165.0 269.0,164.0 269.0,165.0 270.0,165.0 271.0,164.0 270.0,165.0 270.0,166.0 271.0,166.0 273.0,168.0 275.0,167.0 276.0,165.0 275.0,166.0 275.0,167.0 276.0,167.0 277.0,168.0 278.0,169.0 278.0,168.0 281.0,167.0 281.0,165.0 280.0,164.0 280.0,165.0 281.0,165.0 282.0,164.0 283.0,164.0 284.0,164.0 283.0,163.0 284.0,160.0 282.0,159.0 280.0,159.0 281.0,160.0 282.0,159.0 282.0,158.0 283.0,159.0 285.0,159.0 286.0,157.0 289.0,154.0 288.0,149.0 284.0,148.0 285.0,150.0 287.0,149.0 288.0,147.0 290.0,147.0 291.0,144.0 289.0,143.0 288.0,139.0 284.0,137.0 281.0,141.0 283.0,140.0 283.0,138.0 282.0,136.0 282.0,134.0 281.0,133.0 279.0,133.0 274.0,132.0 271.0,135.0 272.0,139.0 273.0,137.0 271.0,136.0 269.0,136.0 268.0,137.0 269.0,138.0 270.0,138.0 271.0,140.0 273.0,139.0 274.0,137.0 273.0,138.0 274.0,139.0 275.0,139.0 275.0,140.0 276.0,141.0 277.0,140.0 279.0,139.0 279.0,137.0 278.0,136.0 278.0,137.0 279.0,137.0 280.0,136.0 281.0,137.0 282.0,136.0 282.0,135.0 282.0,133.0 281.0,131.0 278.0,132.0 280.0,132.0 280.0,131.0 280.0,130.0 279.0,131.0 280.0,132.0 281.0,132.0 282.0,134.0 284.0,133.0 285.0,131.0 284.0,132.0 284.0,133.0 285.0,133.0 286.0,134.0 287.0,134.0 288.0,134.0 290.0,133.0 290.0,131.0 289.0,129.0 289.0,130.0 290.0,131.0 291.0,130.0 292.0,130.0 293.0,130.0 292.0,128.0 293.0,126.0 291.0,125.0 289.0,125.0 290.0,126.0 291.0,125.0 291.0,124.0 292.0,125.0 295.0,125.0 295.0,123.0 298.0,119.0 297.0,115.0 293.0,114.0 294.0,116.0 297.0,115.0 297.0,113.0 299.0,112.0 300.0,110.0 298.0,109.0 297.0,104.0 293.0,103.0 290.0,106.0 292.0,106.0 292.0,104.0 291.0,102.0 291.0,100.0 290.0,98.0 288.0,99.0 283.0,98.0 280.0,101.0 281.0,105.0 282.0,103.0 280.0,102.0 278.0,102.0 278.0,103.0 278.0,104.0 279.0,104.0 280.0,106.0 283.0,105.0 283.0,103.0 282.0,104.0 283.0,105.0 284.0,105.0 284.0,106.0 285.0,107.0 286.0,106.0 288.0,105.0 289.0,103.0 287.0,102.0 287.0,103.0 288.0,103.0 289.0,102.0 290.0,102.0 291.0,102.0 291.0,101.0 291.0,98.0 290.0,97.0 288.0,97.0 289.0,98.0 289.0,97.0 289.0,96.0 289.0,97.0 291.0,97.0 291.0,96.0 293.0,96.0 294.0,94.0 292.0,92.0 293.0,93.0 294.0,94.0 295.0,93.0 296.0,93.0 296.0,92.0 296.0,91.0 297.0,89.0 295.0,87.0 293.0,88.0 294.0,88.0 295.0,88.0 295.0,86.0 295.0,86.0 295.0,85.0 294.0,84.0 292.0,83.0 290.0,83.0 290.0,85.0 291.0,85.0 290.0,84.0 289.0,83.0 291.0,83.0 292.0,81.0 290.0,79.0 289.0,75.0 285.0,74.0 282.0,77.0 284.0,76.0 284.0,74.0 283.0,73.0 283.0,70.0 282.0,69.0 280.0,69.0 276.0,68.0 272.0,71.0 274.0,76.0 274.0,74.0 273.0,72.0 270.0,73.0 269.0,71.0 267.0,72.0 266.0,74.0 263.0,77.0 264.0,81.0 268.0,82.0 267.0,81.0 265.0,81.0 264.0,83.0 264.0,84.0 266.0,85.0 266.0,84.0 268.0,83.0 269.0,81.0 267.0,80.0 268.0,81.0 269.0,81.0 270.0,80.0 271.0,81.0 271.0,80.0 271.0,79.0 272.0,77.0 270.0,75.0 268.0,76.0 269.0,76.0 270.0,75.0 270.0,74.0 270.0,73.0 270.0,72.0 269.0,72.0 267.0,70.0 265.0,71.0 265.0,73.0 266.0,72.0 265.0,71.0 264.0,71.0 265.0,71.0 266.0,70.0 266.0,69.0 266.0,67.0 265.0,66.0 263.0,66.0 264.0,66.0 264.0,66.0 264.0,65.0 265.0,64.0 265.0,63.0 264.0,62.0 262.0,61.0 260.0,61.0 259.0,64.0 260.0,63.0 260.0,62.0 259.0,61.0 258.0,60.0 257.0,60.0 257.0,61.0 254.0,61.0 254.0,64.0 255.0,65.0 255.0,64.0 254.0,64.0 253.0,65.0 254.0,62.0 252.0,61.0 250.0,61.0 246.0,60.0 243.0,63.0 244.0,68.0 245.0,66.0 243.0,64.0 241.0,65.0 239.0,63.0 237.0,64.0 237.0,66.0 233.0,69.0 235.0,73.0 239.0,74.0 237.0,73.0 235.0,73.0 235.0,75.0 232.0,76.0 232.0,78.0 233.0,80.0 235.0,84.0 239.0,85.0 242.0,82.0 240.0,83.0 239.0,85.0 241.0,86.0 242.0,87.0 243.0,86.0 242.0,85.0 243.0,83.0 241.0,81.0 239.0,82.0 240.0,82.0 241.0,81.0 241.0,80.0 242.0,79.0 241.0,78.0 240.0,78.0 239.0,76.0 237.0,77.0 236.0,79.0 237.0,78.0 236.0,77.0 235.0,77.0 235.0,76.0 234.0,76.0 233.0,76.0 231.0,77.0 231.0,79.0 232.0,81.0 232.0,80.0 231.0,79.0 230.0,80.0 230.0,80.0 232.0,82.0 234.0,81.0 234.0,79.0 237.0,76.0 236.0,71.0 232.0,70.0 234.0,72.0 236.0,71.0 236.0,69.0 238.0,69.0 239.0,66.0 237.0,65.0 236.0,61.0 232.0,59.0 229.0,63.0 231.0,62.0 232.0,60.0 230.0,58.0 231.0,56.0 229.0,55.0 227.0,55.0 223.0,54.0 219.0,57.0 221.0,61.0 221.0,59.0 220.0,58.0 218.0,58.0 221.0,55.0 219.0,51.0 215.0,50.0 209.0,44.0 200.0,46.0 198.0,54.0 198.0,54.0 201.0,51.0 200.0,47.0 196.0,46.0 195.0,42.0 190.0,40.0 187.0,44.0 179.0,46.0 176.0,54.0 183.0,61.0 182.0,56.0 177.0,55.0 174.0,58.0 170.0,57.0 167.0,60.0 168.0,65.0 166.0,73.0 172.0,79.0 180.0,77.0 176.0,76.0 173.0,79.0 174.0,83.0 174.0,83.0 176.0,85.0 178.0,84.0 178.0,82.0 182.0,79.0 180.0,75.0 176.0,74.0 178.0,75.0 180.0,75.0 180.0,73.0 183.0,72.0 183.0,70.0 182.0,68.0 180.0,64.0 176.0,63.0 173.0,66.0 175.0,65.0 176.0,63.0 174.0,62.0 175.0,60.0 173.0,58.0 171.0,59.0 167.0,57.0 164.0,61.0 165.0,65.0 165.0,63.0 164.0,61.0 162.0,62.0 162.0,62.0 162.0,62.0 164.0,61.0 164.0,59.0 163.0,57.0 162.0,53.0 157.0,52.0 154.0,55.0 156.0,55.0 157.0,52.0 155.0,51.0 156.0,49.0 154.0,47.0 152.0,48.0 148.0,47.0 145.0,50.0 146.0,54.0 147.0,52.0 145.0,50.0 143.0,51.0 141.0,49.0 139.0,50.0 139.0,52.0 136.0,55.0 137.0,59.0 141.0,61.0 139.0,59.0 137.0,60.0 137.0,62.0 136.0,57.0 131.0,56.0 128.0,59.0 120.0,62.0 117.0,70.0 124.0,76.0 122.0,72.0 118.0,71.0 115.0,74.0 115.0,74.0 111.0,73.0 108.0,76.0 109.0,80.0 107.0,89.0 113.0,95.0 121.0,93.0 117.0,92.0 114.0,95.0 115.0,99.0 112.0,102.0 113.0,107.0 117.0,108.0 124.0,114.0 132.0,112.0 134.0,103.0 131.0,106.0 132.0,111.0 137.0,112.0 139.0,111.0 139.0,109.0 138.0,107.0 137.0,103.0 132.0,102.0 129.0,105.0 131.0,105.0 132.0,102.0 130.0,101.0 131.0,99.0 129.0,97.0 127.0,98.0 123.0,97.0 120.0,100.0 121.0,104.0 122.0,102.0 120.0,100.0 118.0,101.0 116.0,99.0 114.0,100.0 114.0,102.0 111.0,105.0 112.0,109.0 116.0,111.0 114.0,109.0 112.0,110.0 112.0,112.0 112.0,112.0 112.0,110.0 111.0,108.0 109.0,109.0 104.0,107.0 101.0,111.0 102.0,115.0 103.0,113.0 101.0,111.0 99.0,112.0 98.0,110.0 96.0,111.0 95.0,113.0 92.0,116.0 93.0,120.0 97.0,121.0 96.0,120.0 94.0,120.0 93.0,123.0 91.0,123.0 90.0,125.0 92.0,127.0 93.0,131.0 97.0,132.0 100.0,129.0 98.0,130.0 98.0,132.0 99.0,133.0 95.0,132.0 92.0,135.0 93.0,140.0 91.0,148.0 97.0,154.0 105.0,152.0 101.0,151.0 98.0,154.0 99.0,158.0 96.0,161.0 97.0,166.0 101.0,167.0 108.0,173.0 116.0,171.0 119.0,162.0 115.0,165.0 117.0,170.0 121.0,171.0 122.0,175.0 126.0,176.0 129.0,173.0 138.0,171.0 140.0,162.0 134.0,156.0 135.0,160.0 139.0,161.0 142.0,158.0 143.0,156.0 142.0,155.0 139.0,155.0 135.0,154.0 132.0,157.0 133.0,161.0 134.0,159.0 132.0,158.0 130.0,158.0 128.0,157.0 126.0,157.0 126.0,159.0 123.0,163.0 124.0,167.0 128.0,168.0 126.0,166.0 124.0,167.0 124.0,169.0 122.0,170.0 121.0,172.0 123.0,173.0 124.0,178.0 128.0,179.0 131.0,176.0 129.0,176.0 128.0,178.0 130.0,180.0 130.0,180.0 129.0,181.0 130.0,182.0 131.0,182.0 132.0,184.0 134.0,183.0 135.0,181.0 134.0,182.0 134.0,183.0 135.0,183.0 136.0,184.0 137.0,184.0 138.0,184.0 140.0,183.0 140.0,181.0 139.0,179.0 139.0,180.0 140.0,181.0 141.0,180.0 142.0,180.0 143.0,180.0 142.0,178.0 143.0,176.0 141.0,175.0 139.0,175.0 140.0,176.0 141.0,175.0 141.0,174.0 142.0,175.0 145.0,175.0 145.0,173.0 148.0,169.0 147.0,165.0 143.0,164.0 144.0,166.0 147.0,165.0 147.0,163.0 149.0,162.0 150.0,160.0 148.0,159.0 147.0,154.0 143.0,153.0 140.0,156.0 142.0,156.0 142.0,154.0 141.0,152.0 141.0,150.0 140.0,148.0 138.0,149.0 133.0,148.0 130.0,151.0 131.0,155.0 132.0,153.0 130.0,152.0 128.0,152.0 128.0,153.0 128.0,154.0 129.0,154.0 130.0,156.0 133.0,155.0 133.0,153.0 132.0,154.0 133.0,155.0 134.0,155.0 134.0,156.0 135.0,157.0 136.0,156.0 138.0,155.0 139.0,153.0 137.0,152.0 137.0,153.0 138.0,153.0 139.0,152.0 140.0,152.0 141.0,152.0 141.0,151.0 141.0,148.0 140.0,147.0 138.0,147.0 139.0,148.0 139.0,147.0 139.0,146.0 139.0,147.0 141.0,147.0 141.0,146.0 143.0,146.0 144.0,144.0 142.0,142.0 143.0,143.0 144.0,144.0 145.0,143.0 146.0,143.0 146.0,142.0 146.0,141.0 147.0,139.0 145.0,137.0 143.0,138.0 144.0,138.0 145.0,138.0 145.0,136.0 145.0,136.0 145.0,135.0 144.0,134.0 142.0,133.0 140.0,133.0 140.0,135.0 141.0,135.0 140.0,134.0 139.0,133.0 141.0,133.0 142.0,131.0 140.0,129.0 139.0,125.0 135.0,124.0 132.0,127.0 134.0,126.0 134.0,124.0 133.0,123.0 133.0,120.0 132.0,119.0 130.0,119.0 126.0,118.0 122.0,121.0 124.0,126.0 124.0,124.0 123.0,122.0 120.0,123.0 119.0,121.0 117.0,122.0 116.0,124.0 113.0,127.0 114.0,131.0 118.0,132.0 117.0,131.0 115.0,131.0 114.0,133.0 114.0,134.0 116.0,135.0 116.0,134.0 118.0,133.0 119.0,131.0 117.0,130.0 118.0,131.0 119.0,131.0 120.0,130.0 121.0,131.0 121.0,130.0 121.0,129.0 122.0,127.0 120.0,125.0 118.0,126.0 119.0,126.0 120.0,125.0 120.0,124.0 120.0,123.0 120.0,122.0 119.0,122.0 117.0,120.0 115.0,121.0 115.0,123.0 116.0,122.0 115.0,121.0 114.0,121.0 115.0,121.0 116.0,120.0 116.0,119.0 116.0,117.0 115.0,116.0 113.0,116.0 114.0,116.0 114.0,116.0 114.0,115.0 115.0,114.0 115.0,113.0 114.0,112.0 112.0,111.0 110.0,111.0 109.0,114.0 110.0,113.0 110.0,112.0 109.0,111.0 108.0,110.0 107.0,110.0 107.0,111.0 104.0,111.0 104.0,114.0 105.0,115.0 105.0,114.0 104.0,114.0 103.0,115.0 104.0,112.0 102.0,111.0 100.0,111.0 96.0,110.0 93.0,113.0 94.0,118.0 95.0,116.0 93.0,114.0 91.0,115.0 89.0,113.0 87.0,114.0 87.0,116.0 83.0,119.0 85.0,123.0 89.0,124.0 87.0,123.0 85.0,123.0 85.0,125.0 82.0,126.0 82.0,128.0 83.0,130.0 85.0,134.0 89.0,135.0 92.0,132.0 90.0,133.0 89.0,135.0 91.0,136.0 91.0,136.0 92.0,137.0 93.0,136.0 92.0,135.0 93.0,133.0 91.0,131.0 89.0,132.0 90.0,132.0 91.0,131.0 91.0,130.0 92.0,129.0 91.0,128.0 90.0,128.0 89.0,126.0 87.0,127.0 86.0,129.0 87.0,128.0 86.0,127.0 85.0,127.0 85.0,126.0 84.0,126.0 83.0,126.0 81.0,127.0 81.0,129.0 82.0,131.0 82.0,130.0 81.0,129.0 80.0,130.0 80.0,130.0 80.0,130.0 80.0,130.0 80.0,130.0 80.0,130.0 80.0,130.0 80.0,130.0 80.0,130.0 80.0,130.0 81.0,129.0 80.0,128.0 79.0,128.0 78.0,126.0 76.0,127.0 75.0,129.0 76.0,128.0 76.0,127.0 75.0,127.0 74.0,126.0 73.0,126.0 72.0,126.0 70.0,127.0 70.0,129.0 71.0,131.0 71.0,130.0 70.0,129.0 69.0,130.0 68.0,130.0 67.0,130.0 68.0,132.0 67.0,134.0 69.0,135.0 71.0,135.0 70.0,134.0 69.0,135.0 69.0,136.0 68.0,135.0 65.0,135.0 65.0,137.0 62.0,141.0 63.0,145.0 67.0,146.0 66.0,144.0 63.0,145.0 63.0,147.0 61.0,148.0 60.0,150.0 62.0,151.0 63.0,156.0 67.0,157.0 70.0,154.0 68.0,154.0 68.0,156.0 69.0,158.0 69.0,160.0 70.0,162.0 72.0,161.0 77.0,162.0 80.0,159.0 79.0,155.0 78.0,157.0 80.0,158.0 82.0,158.0 82.0,157.0 82.0,156.0 81.0,156.0 80.0,154.0 77.0,155.0 77.0,157.0 78.0,156.0 77.0,155.0 76.0,155.0 76.0,154.0 75.0,153.0 74.0,154.0 72.0,155.0 71.0,157.0 73.0,158.0 73.0,157.0 72.0,157.0 71.0,158.0 70.0,158.0 69.0,158.0 69.0,159.0 69.0,162.0 70.0,163.0 72.0,163.0 71.0,162.0 71.0,163.0 71.0,164.0 71.0,164.0 71.0,163.0 69.0,163.0 69.0,164.0 67.0,164.0 66.0,166.0 68.0,168.0 67.0,167.0 66.0,166.0 65.0,167.0 64.0,167.0 64.0,168.0 64.0,169.0 63.0,171.0 65.0,173.0 67.0,172.0 66.0,172.0 65.0,172.0 65.0,174.0 65.0,174.0 65.0,175.0 66.0,176.0 68.0,177.0 70.0,177.0 70.0,175.0 69.0,175.0 70.0,176.0 71.0,177.0 69.0,177.0 68.0,179.0 70.0,181.0 71.0,185.0 75.0,186.0 78.0,183.0 76.0,184.0 76.0,186.0 77.0,187.0 77.0,190.0 78.0,191.0 80.0,191.0 84.0,192.0 88.0,189.0 86.0,184.0 86.0,186.0 87.0,188.0 90.0,187.0 91.0,189.0 93.0,188.0 94.0,186.0 97.0,183.0 96.0,179.0 92.0,178.0 93.0,179.0 95.0,179.0 96.0,177.0 96.0,176.0 94.0,175.0 94.0,176.0 92.0,177.0 91.0,179.0 93.0,180.0 92.0,179.0 91.0,179.0 90.0,180.0 89.0,179.0 89.0,180.0 89.0,181.0 88.0,183.0 90.0,185.0 92.0,184.0 91.0,184.0 90.0,185.0 90.0,186.0 90.0,187.0 90.0,188.0 91.0,188.0 93.0,190.0 95.0,189.0 95.0,187.0 94.0,188.0 95.0,189.0 96.0,189.0 95.0,189.0 94.0,190.0 94.0,191.0 94.0,193.0 95.0,194.0 97.0,194.0 96.0,194.0 96.0,194.0 96.0,195.0 95.0,196.0 95.0,197.0 96.0,198.0 98.0,199.0 100.0,199.0 101.0,196.0 100.0,197.0 100.0,198.0 101.0,199.0 102.0,200.0 103.0,200.0 103.0,199.0 106.0,199.0 106.0,196.0 105.0,195.0 105.0,196.0 106.0,196.0 107.0,195.0 106.0,198.0 108.0,199.0 110.0,199.0 114.0,200.0 117.0,197.0 116.0,192.0 115.0,194.0 117.0,196.0 119.0,195.0 121.0,197.0 123.0,196.0 123.0,194.0 127.0,191.0 125.0,187.0 121.0,186.0 123.0,187.0 125.0,187.0 125.0,185.0 128.0,184.0 128.0,182.0 127.0,180.0 125.0,176.0 121.0,175.0 118.0,178.0 120.0,177.0 121.0,175.0 119.0,174.0 118.0,173.0 117.0,174.0 118.0,175.0 117.0,177.0 119.0,179.0 121.0,178.0 120.0,178.0 119.0,179.0 119.0,180.0 118.0,181.0 119.0,182.0 120.0,182.0 121.0,184.0 123.0,183.0 124.0,181.0 123.0,182.0 124.0,183.0 125.0,183.0 125.0,184.0 126.0,184.0 127.0,184.0 129.0,183.0 129.0,181.0 128.0,179.0 128.0,180.0 129.0,181.0 130.0,180.0 128.0,178.0 126.0,179.0 126.0,181.0 123.0,184.0 124.0,189.0 128.0,190.0 126.0,188.0 124.0,189.0 124.0,191.0 122.0,191.0 121.0,194.0 123.0,195.0 124.0,199.0 128.0,201.0 131.0,197.0 129.0,198.0 128.0,200.0 130.0,202.0 129.0,204.0 131.0,205.0 133.0,205.0 137.0,206.0 141.0,203.0 139.0,199.0 139.0,201.0 140.0,202.0 142.0,202.0 139.0,205.0 141.0,209.0 145.0,210.0 151.0,216.0 160.0,214.0 162.0,206.0 159.0,209.0 160.0,213.0 164.0,214.0 165.0,218.0 170.0,220.0 173.0,216.0 181.0,214.0 184.0,206.0 177.0,199.0 178.0,204.0 183.0,205.0 186.0,202.0 190.0,203.0 193.0,200.0 192.0,195.0 194.0,187.0 188.0,181.0 180.0,183.0 184.0,184.0 187.0,181.0 186.0,177.0 184.0,175.0 182.0,176.0 182.0,178.0 178.0,181.0 180.0,185.0 184.0,186.0 182.0,185.0 180.0,185.0 180.0,187.0 177.0,188.0 177.0,190.0 178.0,192.0 180.0,196.0 184.0,197.0 187.0,194.0 185.0,195.0 184.0,197.0 186.0,198.0 185.0,200.0 187.0,202.0 189.0,201.0 193.0,203.0 196.0,199.0 195.0,195.0 195.0,197.0 196.0,199.0 198.0,198.0 196.0,199.0 196.0,201.0 197.0,203.0 198.0,207.0 203.0,208.0 206.0,205.0 204.0,205.0 203.0,208.0 205.0,209.0 204.0,211.0 206.0,213.0 208.0,212.0 212.0,213.0 215.0,210.0 214.0,206.0 213.0,208.0 215.0,210.0 217.0,209.0 219.0,211.0 221.0,210.0 221.0,208.0 224.0,205.0 223.0,201.0 219.0,199.0 221.0,201.0 223.0,200.0 223.0,198.0 224.0,203.0 229.0,204.0 232.0,201.0 240.0,198.0 243.0,190.0 236.0,184.0 238.0,188.0 242.0,189.0 245.0,186.0 249.0,187.0 252.0,184.0 251.0,180.0 253.0,171.0 247.0,165.0 239.0,167.0 243.0,168.0 246.0,165.0 245.0,161.0 248.0,158.0 247.0,153.0 243.0,152.0 236.0,146.0 228.0,148.0 226.0,157.0 229.0,154.0 228.0,149.0 223.0,148.0 221.0,149.0 221.0,151.0 222.0,153.0 223.0,157.0 228.0,158.0 231.0,155.0 229.0,155.0 228.0,158.0 230.0,159.0 229.0,161.0 231.0,163.0 233.0,162.0 237.0,163.0 240.0,160.0 239.0,156.0 238.0,158.0 240.0,160.0 242.0,159.0 244.0,161.0 246.0,160.0 246.0,158.0 249.0,155.0 248.0,151.0 244.0,149.0 246.0,151.0 248.0,150.0 248.0,148.0 248.0,150.0 249.0,152.0 251.0,151.0 256.0,153.0 259.0,149.0 258.0,145.0 257.0,147.0 259.0,149.0 261.0,148.0 262.0,150.0 264.0,149.0 265.0,147.0 268.0,144.0 267.0,140.0 263.0,139.0 264.0,140.0 266.0,140.0 267.0,137.0 269.0,137.0 270.0,135.0 268.0,133.0 267.0,129.0 263.0,128.0 260.0,131.0 262.0,130.0 262.0,128.0 261.0,127.0 265.0,128.0 268.0,125.0 267.0,120.0 269.0,112.0 263.0,106.0 255.0,108.0 259.0,109.0 262.0,106.0 261.0,102.0 264.0,99.0 263.0,94.0 259.0,93.0 252.0,87.0 244.0,89.0 241.0,98.0 245.0,95.0 243.0,90.0 239.0,89.0 239.0,89.0 238.0,85.0 234.0,84.0 231.0,87.0 222.0,89.0 220.0,98.0 226.0,104.0 225.0,100.0 221.0,99.0 218.0,102.0 218.0,102.0 217.0,104.0 218.0,105.0 221.0,105.0 225.0,106.0 228.0,103.0 227.0,99.0 226.0,101.0 228.0,102.0 230.0,102.0 232.0,103.0 234.0,103.0 234.0,101.0 237.0,97.0 236.0,93.0 232.0,92.0 234.0,94.0 236.0,93.0 236.0,91.0 238.0,90.0 239.0,88.0 237.0,87.0 236.0,82.0 232.0,81.0 229.0,84.0 231.0,84.0 232.0,82.0 230.0,80.0 230.0,80.0 231.0,79.0 230.0,78.0 229.0,78.0 228.0,76.0 226.0,77.0 225.0,79.0 226.0,78.0 226.0,77.0 225.0,77.0 224.0,76.0 223.0,76.0 222.0,76.0 220.0,77.0 220.0,79.0 221.0,81.0 221.0,80.0 220.0,79.0 219.0,80.0 218.0,80.0 217.0,80.0 218.0,82.0 217.0,84.0 219.0,85.0 221.0,85.0 220.0,84.0 219.0,85.0 219.0,86.0 218.0,85.0 215.0,85.0 215.0,87.0 212.0,91.0 213.0,95.0 217.0,96.0 216.0,94.0 213.0,95.0 213.0,97.0 211.0,98.0 210.0,100.0 212.0,101.0 213.0,106.0 217.0,107.0 220.0,104.0 218.0,104.0 218.0,106.0 219.0,108.0 219.0,110.0 220.0,112.0 222.0,111.0 227.0,112.0 230.0,109.0 229.0,105.0 228.0,107.0 230.0,108.0 232.0,108.0 232.0,107.0 232.0,106.0 231.0,106.0 230.0,104.0 227.0,105.0 227.0,107.0 228.0,106.0 227.0,105.0 226.0,105.0 226.0,104.0 225.0,103.0 224.0,104.0 222.0,105.0 221.0,107.0 223.0,108.0 223.0,107.0 222.0,107.0 221.0,108.0 220.0,108.0 219.0,108.0 219.0,109.0 219.0,112.0 220.0,113.0 222.0,113.0 221.0,112.0 221.0,113.0 221.0,114.0 221.0,113.0 219.0,113.0 219.0,114.0 217.0,114.0 216.0,116.0 218.0,118.0 217.0,117.0 216.0,116.0 215.0,117.0 214.0,117.0 214.0,118.0 214.0,119.0 213.0,121.0 215.0,123.0 217.0,122.0 216.0,122.0 215.0,122.0 215.0,124.0 215.0,124.0 215.0,125.0 216.0,126.0 218.0,127.0 220.0,127.0 220.0,125.0 219.0,125.0 220.0,126.0 221.0,127.0 219.0,127.0 218.0,129.0 220.0,131.0 221.0,135.0 225.0,136.0 228.0,133.0 226.0,134.0 226.0,136.0 227.0,137.0 227.0,140.0 228.0,141.0 230.0,141.0 234.0,142.0 238.0,139.0 236.0,134.0 236.0,136.0 237.0,138.0 240.0,137.0 241.0,139.0 243.0,138.0 244.0,136.0 247.0,133.0 246.0,129.0 242.0,128.0 243.0,129.0 245.0,129.0 246.0,127.0 246.0,126.0 244.0,125.0 244.0,126.0 242.0,127.0 241.0,129.0 243.0,130.0 242.0,129.0 241.0,129.0 240.0,130.0 239.0,129.0 239.0,130.0 239.0,131.0 238.0,133.0 240.0,135.0 242.0,134.0 241.0,134.0 240.0,135.0 240.0,136.0 240.0,137.0 240.0,138.0 241.0,138.0 243.0,140.0 245.0,139.0 245.0,137.0 244.0,138.0 245.0,139.0 246.0,139.0 245.0,139.0 244.0,140.0 244.0,141.0 244.0,143.0 245.0,144.0 247.0,144.0 246.0,144.0 246.0,144.0 246.0,145.0 245.0,146.0 245.0,147.0 246.0,148.0 248.0,149.0 250.0,149.0 251.0,146.0 250.0,147.0 250.0,148.0 251.0,149.0 252.0,150.0 253.0,150.0 253.0,149.0 256.0,149.0 256.0,146.0 255.0,145.0 255.0,146.0 256.0,146.0 257.0,145.0 256.0,148.0 258.0,149.0 260.0,149.0 264.0,150.0 267.0,147.0 266.0,142.0 265.0,144.0 267.0,146.0 269.0,145.0 271.0,147.0 273.0,146.0 273.0,144.0 277.0,141.0 275.0,137.0 271.0,136.0 273.0,137.0 275.0,137.0 275.0,135.0 278.0,134.0 278.0,132.0 277.0,130.0 275.0,126.0 271.0,125.0 268.0,128.0 270.0,127.0 271.0,125.0 269.0,124.0 268.0,123.0 267.0,124.0 268.0,125.0 267.0,127.0 269.0,129.0 271.0,128.0 270.0,128.0 269.0,129.0 269.0,130.0 268.0,131.0 269.0,132.0 270.0,132.0 271.0,134.0 273.0,133.0 274.0,131.0 273.0,132.0 274.0,133.0 275.0,133.0 275.0,134.0 276.0,134.0 277.0,134.0 279.0,133.0 279.0,131.0 278.0,129.0 278.0,130.0 279.0,131.0 280.0,130.0 280.0,131.0 281.0,131.0 282.0,131.0 284.0,130.0 285.0,128.0 283.0,126.0 284.0,127.0 285.0,128.0 285.0,127.0 286.0,127.0 287.0,126.0 287.0,125.0 288.0,123.0 286.0,122.0 284.0,122.0 285.0,122.0 286.0,122.0 285.0,121.0 286.0,120.0 286.0,119.0 285.0,118.0 283.0,117.0 281.0,118.0 281.0,120.0 281.0,119.0 281.0,118.0 280.0,118.0 282.0,117.0 283.0,115.0 281.0,113.0 280.0,109.0 276.0,108.0 273.0,111.0 275.0,110.0 275.0,108.0 274.0,107.0 274.0,105.0 273.0,103.0 271.0,104.0 266.0,102.0 263.0,106.0 264.0,110.0 265.0,108.0 263.0,106.0 261.0,107.0 260.0,105.0 258.0,106.0 257.0,108.0 254.0,111.0 255.0,115.0 259.0,116.0 258.0,115.0 256.0,115.0 255.0,118.0 255.0,119.0 256.0,119.0 257.0,118.0 259.0,118.0 260.0,115.0 258.0,114.0 259.0,115.0 260.0,115.0 260.0,114.0 261.0,115.0 262.0,114.0 262.0,113.0 263.0,111.0 261.0,109.0 259.0,110.0 260.0,110.0 261.0,109.0 260.0,108.0 261.0,107.0 261.0,106.0 260.0,106.0 258.0,104.0 256.0,105.0 256.0,107.0 256.0,106.0 256.0,105.0 255.0,105.0 256.0,105.0 257.0,105.0 257.0,103.0 257.0,101.0 256.0,100.0 253.0,100.0 255.0,101.0 255.0,100.0 255.0,99.0 256.0,98.0 255.0,97.0 254.0,97.0 253.0,95.0 251.0,96.0 250.0,98.0 251.0,97.0 251.0,96.0 250.0,96.0 249.0,95.0 248.0,94.0 247.0,95.0 245.0,96.0 245.0,98.0 246.0,99.0 246.0,98.0 245.0,98.0 244.0,99.0 245.0,97.0 243.0,95.0 241.0,96.0 237.0,94.0 234.0,98.0 235.0,102.0 235.0,100.0 234.0,98.0 232.0,99.0 230.0,97.0 228.0,98.0 227.0,100.0 224.0,103.0 225.0,107.0 230.0,108.0 228.0,107.0 226.0,107.0 225.0,110.0 223.0,110.0 223.0,112.0 224.0,114.0 225.0,118.0 230.0,119.0 233.0,116.0 231.0,117.0 230.0,119.0 232.0,120.0 233.0,121.0 234.0,120.0 233.0,119.0 234.0,117.0 232.0,115.0 230.0,116.0 231.0,116.0 232.0,115.0 232.0,114.0 232.0,113.0 232.0,112.0 231.0,112.0 230.0,110.0 227.0,111.0 227.0,113.0 228.0,112.0 227.0,111.0 226.0,111.0 226.0,110.0 225.0,110.0 224.0,110.0 222.0,111.0 221.0,113.0 223.0,115.0 223.0,114.0 222.0,113.0 221.0,114.0 221.0,114.0 222.0,113.0 221.0,112.0 220.0,112.0 219.0,110.0 217.0,111.0 216.0,113.0 217.0,112.0 217.0,111.0 215.0,111.0 215.0,110.0 214.0,110.0 213.0,110.0 211.0,111.0 211.0,113.0 212.0,115.0 212.0,114.0 211.0,113.0 210.0,114.0 209.0,114.0 208.0,115.0 208.0,116.0 208.0,118.0 209.0,119.0 212.0,119.0 211.0,119.0 210.0,119.0 210.0,120.0 208.0,119.0 206.0,119.0 206.0,122.0 203.0,125.0 204.0,129.0 208.0,130.0 206.0,129.0 204.0,129.0 204.0,131.0 202.0,132.0 201.0,134.0 203.0,135.0 204.0,140.0 208.0,141.0 211.0,138.0 209.0,138.0 208.0,140.0 210.0,142.0 209.0,144.0 211.0,146.0 213.0,145.0 217.0,146.0 221.0,143.0 219.0,139.0 219.0,141.0 220.0,143.0 223.0,142.0 223.0,141.0 223.0,140.0 222.0,140.0 220.0,138.0 218.0,139.0 218.0,141.0 218.0,140.0 218.0,139.0 217.0,139.0 217.0,138.0 216.0,138.0 215.0,138.0 213.0,139.0 212.0,141.0 214.0,143.0 214.0,142.0 212.0,141.0 212.0,142.0 211.0,142.0 210.0,143.0 210.0,144.0 210.0,146.0 211.0,147.0 213.0,147.0 212.0,146.0 211.0,147.0 212.0,148.0 212.0,148.0 212.0,148.0 214.0,148.0 214.0,146.0 213.0,144.0 212.0,140.0 207.0,139.0 204.0,142.0 206.0,141.0 207.0,139.0 205.0,137.0 206.0,135.0 204.0,134.0 202.0,134.0 198.0,133.0 195.0,136.0 196.0,141.0 197.0,138.0 195.0,137.0 193.0,137.0 191.0,136.0 189.0,136.0 189.0,139.0 186.0,142.0 187.0,146.0 191.0,147.0 189.0,146.0 187.0,146.0 187.0,148.0 186.0,144.0 181.0,143.0 178.0,146.0 170.0,148.0 167.0,157.0 174.0,163.0 172.0,159.0 168.0,158.0 165.0,161.0 161.0,160.0 158.0,163.0 159.0,167.0 157.0,176.0 163.0,182.0 171.0,180.0 167.0,178.0 164.0,182.0 165.0,186.0 162.0,189.0 163.0,193.0 167.0,194.0 174.0,201.0 182.0,198.0 184.0,190.0 181.0,193.0 182.0,197.0 187.0,198.0 189.0,198.0 189.0,196.0 188.0,194.0 187.0,190.0 182.0,189.0 179.0,192.0 181.0,191.0 182.0,189.0 180.0,187.0 181.0,185.0 179.0,184.0 177.0,184.0 173.0,183.0 170.0,186.0 171.0,191.0 172.0,188.0 170.0,187.0 168.0,187.0 166.0,186.0 164.0,186.0 164.0,189.0 161.0,192.0 162.0,196.0 166.0,197.0 164.0,196.0 162.0,196.0 162.0,198.0 162.0,198.0 162.0,198.0 162.0,196.0 161.0,195.0 159.0,195.0 154.0,194.0 151.0,197.0 152.0,201.0 153.0,199.0 151.0,198.0 149.0,198.0 148.0,197.0 146.0,197.0 145.0,199.0 142.0,203.0 143.0,207.0 147.0,208.0 146.0,206.0 144.0,207.0 143.0,209.0 141.0,210.0 140.0,212.0 142.0,213.0 143.0,218.0 147.0,219.0 150.0,216.0 148.0,216.0 148.0,218.0 149.0,220.0 145.0,219.0 142.0,222.0 143.0,226.0 141.0,235.0 147.0,241.0 155.0,239.0 151.0,238.0 148.0,241.0 149.0,245.0 146.0,248.0 147.0,252.0 151.0,253.0 158.0,260.0 166.0,257.0 169.0,249.0 165.0,252.0 167.0,256.0 171.0,257.0 172.0,262.0 176.0,263.0 179.0,260.0 188.0,257.0 190.0,249.0 184.0,243.0 185.0,247.0 189.0,248.0 192.0,245.0 193.0,243.0 192.0,241.0 189.0,242.0 185.0,241.0 182.0,244.0 183.0,248.0 184.0,246.0 182.0,244.0 180.0,245.0 178.0,243.0 176.0,244.0 176.0,246.0 173.0,249.0 174.0,253.0 178.0,255.0 176.0,253.0 174.0,254.0 174.0,256.0 172.0,256.0 171.0,258.0 173.0,260.0 174.0,264.0 178.0,265.0 181.0,262.0 179.0,263.0 178.0,265.0 180.0,267.0 178.0,265.0 176.0,266.0 176.0,268.0 173.0,271.0 174.0,275.0 178.0,276.0 176.0,275.0 174.0,275.0 174.0,277.0 172.0,278.0 171.0,280.0 173.0,282.0 174.0,286.0 178.0,287.0 181.0,284.0 179.0,285.0 178.0,287.0 180.0,288.0 179.0,290.0 181.0,292.0 183.0,291.0 187.0,293.0 191.0,289.0 189.0,285.0 189.0,287.0 190.0,289.0 192.0,288.0 189.0,291.0 191.0,296.0 195.0,297.0 201.0,303.0 210.0,301.0 212.0,292.0 209.0,295.0 210.0,300.0 214.0,301.0 215.0,305.0 220.0,306.0 223.0,303.0 231.0,301.0 234.0,292.0 227.0,286.0 228.0,290.0 233.0,291.0 236.0,288.0 240.0,289.0 243.0,286.0 242.0,282.0 244.0,273.0 238.0,267.0 230.0,270.0 234.0,271.0 237.0,268.0 236.0,263.0 234.0,262.0 232.0,262.0 232.0,264.0 228.0,268.0 230.0,272.0 234.0,273.0 232.0,271.0 230.0,272.0 230.0,274.0 227.0,275.0 227.0,277.0 228.0,278.0 230.0,283.0 234.0,284.0 237.0,281.0 235.0,281.0 234.0,283.0 236.0,285.0 235.0,287.0 237.0,289.0 239.0,288.0 243.0,289.0 246.0,286.0 245.0,282.0 245.0,284.0 246.0,285.0 248.0,285.0 249.0,286.0 250.0,286.0 250.0,285.0 253.0,285.0 253.0,283.0 252.0,281.0 252.0,282.0 253.0,283.0 254.0,282.0 255.0,282.0 256.0,281.0 255.0,280.0 256.0,278.0 254.0,277.0 252.0,277.0 253.0,277.0 254.0,277.0 254.0,276.0 254.0,275.0 254.0,274.0 253.0,273.0 252.0,272.0 249.0,272.0 249.0,275.0 250.0,274.0 249.0,273.0 248.0,272.0 250.0,272.0 251.0,270.0 249.0,268.0 248.0,264.0 244.0,263.0 241.0,266.0 243.0,265.0 244.0,263.0 242.0,262.0 243.0,259.0 241.0,258.0 239.0,258.0 235.0,257.0 232.0,260.0 233.0,265.0 233.0,263.0 232.0,261.0 230.0,262.0 228.0,260.0 226.0,261.0 225.0,263.0 222.0,266.0 223.0,270.0 228.0,271.0 226.0,270.0 224.0,270.0 223.0,272.0 224.0,273.0 225.0,274.0 225.0,273.0 228.0,272.0 228.0,270.0 227.0,269.0 227.0,270.0 228.0,270.0 229.0,269.0 230.0,270.0 231.0,269.0 230.0,268.0 231.0,266.0 229.0,264.0 227.0,265.0 228.0,265.0 229.0,264.0 229.0,263.0 229.0,262.0 229.0,261.0 228.0,261.0 227.0,259.0 224.0,260.0 224.0,262.0 225.0,261.0 224.0,260.0 223.0,260.0 224.0,260.0 225.0,259.0 225.0,258.0 225.0,256.0 224.0,255.0 222.0,255.0 223.0,256.0 224.0,255.0 223.0,254.0 224.0,253.0 224.0,252.0 223.0,252.0 221.0,250.0 219.0,251.0 218.0,253.0 219.0,252.0 219.0,251.0 218.0,251.0 218.0,249.0 217.0,249.0 216.0,250.0 214.0,251.0 213.0,253.0 215.0,254.0 214.0,253.0 213.0,253.0 212.0,254.0 213.0,252.0 211.0,250.0 209.0,251.0 205.0,249.0 202.0,253.0 203.0,257.0 204.0,255.0 202.0,253.0 200.0,254.0 198.0,252.0 196.0,253.0 196.0,255.0 193.0,258.0 194.0,262.0 198.0,263.0 196.0,262.0 194.0,262.0 194.0,264.0 192.0,265.0 191.0,267.0 193.0,269.0 194.0,273.0 198.0,274.0 201.0,271.0 199.0,272.0 198.0,274.0 200.0,275.0 201.0,276.0 202.0,275.0 202.0,274.0 202.0,272.0 201.0,270.0 198.0,271.0 199.0,271.0 200.0,270.0 200.0,269.0 201.0,268.0 200.0,267.0 199.0,267.0 198.0,265.0 196.0,266.0 195.0,268.0 196.0,267.0 196.0,266.0 195.0,266.0 194.0,265.0 193.0,265.0 192.0,265.0 190.0,266.0 190.0,268.0 191.0,270.0 191.0,269.0 190.0,268.0 189.0,269.0 190.0,268.0 190.0,267.0 189.0,267.0 187.0,265.0 185.0,266.0 184.0,268.0 185.0,267.0 185.0,266.0 184.0,266.0 183.0,265.0 182.0,265.0 182.0,265.0 179.0,266.0 179.0,268.0 180.0,270.0 180.0,269.0 179.0,268.0 178.0,269.0 177.0,269.0 176.0,270.0 177.0,271.0 176.0,273.0 178.0,274.0 180.0,274.0 179.0,273.0 178.0,274.0 178.0,275.0 177.0,274.0 175.0,274.0 174.0,276.0 171.0,280.0 172.0,284.0 176.0,285.0 175.0,283.0 173.0,284.0 172.0,286.0 170.0,287.0 169.0,289.0 171.0,290.0 172.0,295.0 176.0,296.0 179.0,293.0 177.0,293.0 177.0,295.0 178.0,297.0 178.0,299.0 179.0,301.0 181.0,300.0 186.0,301.0 189.0,298.0 188.0,294.0 187.0,296.0 189.0,298.0 191.0,297.0 192.0,296.0 191.0,295.0 190.0,295.0 189.0,293.0 187.0,294.0 186.0,296.0 187.0,295.0 186.0,294.0 185.0,294.0 185.0,293.0 184.0,292.0 183.0,293.0 181.0,294.0 181.0,296.0 182.0,298.0 182.0,296.0 181.0,296.0 180.0,297.0 179.0,297.0 178.0,297.0 178.0,299.0 178.0,301.0 179.0,302.0 182.0,302.0 180.0,301.0 180.0,302.0 180.0,303.0 180.0,303.0 180.0,303.0 179.0,303.0 178.0,304.0 178.0,305.0 178.0,307.0 179.0,308.0 182.0,308.0 180.0,308.0 180.0,308.0 180.0,309.0 179.0,310.0 180.0,311.0 181.0,312.0 182.0,313.0 184.0,313.0 185.0,310.0 184.0,311.0 184.0,312.0 185.0,313.0 186.0,314.0 187.0,314.0 188.0,313.0 190.0,313.0 190.0,310.0 189.0,309.0 189.0,310.0 190.0,310.0 191.0,309.0 190.0,312.0 192.0,313.0 194.0,313.0 198.0,314.0 201.0,311.0 200.0,306.0 200.0,308.0 201.0,310.0 203.0,309.0 205.0,311.0 207.0,310.0 208.0,308.0 211.0,305.0 210.0,301.0 205.0,300.0 207.0,301.0 209.0,301.0 210.0,299.0 212.0,298.0 212.0,296.0 211.0,294.0 210.0,290.0 205.0,289.0 202.0,292.0 204.0,292.0 205.0,289.0 203.0,288.0 202.0,288.0 201.0,288.0 202.0,289.0 201.0,292.0 203.0,293.0 205.0,292.0 204.0,292.0 203.0,293.0 203.0,294.0 203.0,295.0 203.0,296.0 204.0,296.0 205.0,298.0 208.0,297.0 208.0,295.0 207.0,296.0 208.0,297.0 209.0,297.0 209.0,298.0 210.0,299.0 211.0,298.0 213.0,297.0 214.0,295.0 212.0,293.0 212.0,295.0 213.0,295.0 214.0,294.0 213.0,295.0 214.0,296.0 215.0,296.0 216.0,298.0 218.0,297.0 219.0,295.0 218.0,296.0 218.0,297.0 220.0,297.0 220.0,298.0 221.0,299.0 222.0,298.0 224.0,297.0 224.0,295.0 223.0,293.0 223.0,295.0 224.0,295.0 225.0,294.0 226.0,294.0 227.0,294.0 227.0,292.0 227.0,290.0 226.0,289.0 223.0,289.0 224.0,290.0 225.0,289.0 225.0,288.0 227.0,289.0 229.0,289.0 229.0,287.0 232.0,284.0 231.0,279.0 227.0,278.0 229.0,280.0 231.0,279.0 231.0,277.0 233.0,276.0 234.0,274.0 232.0,273.0 231.0,268.0 227.0,267.0 224.0,270.0 226.0,270.0 227.0,268.0 225.0,266.0 226.0,264.0 224.0,262.0 222.0,263.0 218.0,262.0 214.0,265.0 216.0,269.0 216.0,267.0 215.0,266.0 212.0,266.0 212.0,267.0 212.0,268.0 213.0,268.0 215.0,270.0 217.0,269.0 217.0,267.0 217.0,268.0 217.0,269.0 218.0,269.0 218.0,270.0 219.0,271.0 220.0,270.0 222.0,269.0 223.0,267.0 221.0,266.0 221.0,267.0 223.0,267.0 223.0,266.0 224.0,266.0 225.0,266.0 225.0,265.0 225.0,262.0 224.0,261.0 222.0,261.0 223.0,262.0 224.0,261.0 223.0,260.0 224.0,261.0 225.0,261.0 225.0,260.0 228.0,260.0 228.0,258.0 227.0,256.0 227.0,257.0 228.0,258.0 229.0,257.0 230.0,257.0 231.0,256.0 230.0,255.0 231.0,253.0 229.0,252.0 227.0,252.0 228.0,252.0 229.0,252.0 229.0,251.0 229.0,250.0 229.0,249.0 228.0,248.0 227.0,247.0 224.0,247.0 224.0,250.0 225.0,249.0 224.0,248.0 223.0,247.0 225.0,247.0 226.0,245.0 224.0,243.0 223.0,239.0 219.0,238.0 216.0,241.0 218.0,240.0 219.0,238.0 217.0,237.0 218.0,234.0 216.0,233.0 214.0,233.0 210.0,232.0 207.0,235.0 208.0,240.0 208.0,238.0 207.0,236.0 205.0,237.0 203.0,235.0 201.0,236.0 200.0,238.0 197.0,241.0 198.0,245.0 203.0,246.0 201.0,245.0 199.0,245.0 198.0,247.0 199.0,248.0 200.0,249.0 200.0,248.0 203.0,247.0 203.0,245.0 202.0,244.0 202.0,245.0 203.0,245.0 204.0,244.0 205.0,245.0 206.0,244.0 205.0,243.0 206.0,241.0 204.0,239.0 202.0,240.0 203.0,240.0 204.0,239.0 204.0,238.0 204.0,237.0 204.0,236.0 203.0,236.0 202.0,234.0 199.0,235.0 199.0,237.0 200.0,236.0 199.0,235.0 198.0,235.0 198.0,237.0 199.0,239.0 201.0,238.0 206.0,239.0 209.0,236.0 208.0,232.0 207.0,234.0 209.0,235.0 211.0,235.0 212.0,236.0 214.0,236.0 215.0,234.0 218.0,231.0 217.0,226.0 213.0,225.0 214.0,227.0 216.0,226.0 217.0,224.0 219.0,224.0 220.0,221.0 218.0,220.0 217.0,216.0 213.0,214.0 210.0,218.0 212.0,217.0 212.0,215.0 211.0,213.0 215.0,214.0 218.0,211.0 217.0,207.0 219.0,198.0 213.0,192.0 205.0,195.0 209.0,196.0 212.0,193.0 211.0,188.0 214.0,185.0 213.0,181.0 209.0,180.0 202.0,173.0 194.0,176.0 191.0,184.0 195.0,181.0 193.0,177.0 189.0,176.0 188.0,171.0 184.0,170.0 181.0,173.0 172.0,176.0 170.0,184.0 176.0,191.0 175.0,186.0 171.0,185.0 167.0,188.0 167.0,190.0 168.0,192.0 171.0,191.0 175.0,193.0 178.0,189.0 177.0,185.0 176.0,187.0 178.0,189.0 180.0,188.0 182.0,190.0 184.0,189.0 184.0,187.0 187.0,184.0 186.0,180.0 182.0,179.0 184.0,180.0 186.0,180.0 186.0,177.0 188.0,177.0 189.0,175.0 187.0,173.0 186.0,169.0 182.0,168.0 179.0,171.0 181.0,170.0 182.0,168.0 180.0,167.0 180.0,167.0 182.0,168.0 184.0,168.0 184.0,165.0 187.0,162.0 186.0,158.0 182.0,157.0 184.0,158.0 186.0,158.0 186.0,156.0 188.0,155.0 189.0,153.0 187.0,152.0 186.0,147.0 182.0,146.0 179.0,149.0 181.0,149.0 182.0,147.0 180.0,145.0 181.0,143.0 179.0,141.0 177.0,142.0 173.0,141.0 169.0,144.0 171.0,148.0 171.0,146.0 170.0,144.0 167.0,145.0 171.0,142.0 169.0,138.0 165.0,136.0 159.0,130.0 150.0,132.0 148.0,141.0 151.0,138.0 150.0,134.0 146.0,132.0 145.0,128.0 140.0,127.0 137.0,130.0 129.0,132.0 126.0,141.0 133.0,147.0 132.0,143.0 127.0,142.0 124.0,145.0 120.0,144.0 117.0,147.0 118.0,151.0 116.0,160.0 122.0,166.0 130.0,164.0 126.0,163.0 123.0,166.0 124.0,170.0 126.0,172.0 128.0,171.0 128.0,169.0 132.0,166.0 130.0,161.0 126.0,160.0 128.0,162.0 130.0,161.0 130.0,159.0 133.0,159.0 133.0,156.0 132.0,155.0 130.0,151.0 126.0,149.0 123.0,153.0 125.0,152.0 126.0,150.0 124.0,148.0 125.0,146.0 123.0,145.0 121.0,145.0 117.0,144.0 114.0,147.0 115.0,151.0 115.0,149.0 114.0,148.0 112.0,148.0 112.0,148.0 112.0,148.0 112.0,148.0 112.0,148.0 112.0,148.0 114.0,148.0 114.0,146.0 113.0,144.0 112.0,140.0 107.0,139.0 104.0,142.0 106.0,141.0 107.0,139.0 105.0,137.0 106.0,135.0 104.0,134.0 102.0,134.0 98.0,133.0 95.0,136.0 96.0,141.0 97.0,138.0 95.0,137.0 93.0,137.0 91.0,136.0 89.0,136.0 89.0,139.0 86.0,142.0 87.0,146.0 91.0,147.0 89.0,146.0 87.0,146.0 87.0,148.0 86.0,144.0 81.0,143.0 78.0,146.0 70.0,148.0 67.0,157.0 74.0,163.0 72.0,159.0 68.0,158.0 65.0,161.0 61.0,160.0 58.0,163.0 59.0,167.0 57.0,176.0 63.0,182.0 71.0,180.0 67.0,178.0 64.0,182.0 65.0,186.0 62.0,189.0 63.0,193.0 67.0,194.0 74.0,201.0 82.0,198.0 84.0,190.0 81.0,193.0 82.0,197.0 87.0,198.0 89.0,198.0 89.0,196.0 88.0,194.0 87.0,190.0 82.0,189.0 79.0,192.0 81.0,191.0 82.0,189.0 80.0,187.0 81.0,185.0 79.0,184.0 77.0,184.0 73.0,183.0 70.0,186.0 71.0,191.0 72.0,188.0 70.0,187.0 68.0,187.0 66.0,186.0 64.0,186.0 64.0,189.0 61.0,192.0 62.0,196.0 66.0,197.0 64.0,196.0 62.0,196.0 62.0,198.0 61.0,198.0 60.0,199.0 60.0,200.0 60.0,202.0 61.0,204.0 63.0,203.0 62.0,203.0 61.0,203.0 62.0,205.0 61.0,205.0 61.0,206.0 62.0,207.0 64.0,208.0 66.0,208.0 67.0,206.0 66.0,206.0 66.0,207.0 67.0,208.0 67.0,209.0 68.0,209.0 69.0,208.0 71.0,208.0 72.0,206.0 70.0,204.0 71.0,205.0 72.0,205.0 73.0,205.0 72.0,207.0 74.0,208.0 76.0,208.0 80.0,209.0 83.0,206.0 82.0,201.0 81.0,204.0 83.0,205.0 85.0,205.0 87.0,206.0 89.0,206.0 89.0,203.0 92.0,200.0 91.0,196.0 87.0,195.0 89.0,196.0 91.0,196.0 91.0,194.0 93.0,193.0 94.0,191.0 92.0,189.0 91.0,185.0 87.0,184.0 84.0,187.0 86.0,187.0 87.0,184.0 85.0,183.0 84.0,183.0 83.0,183.0 83.0,184.0 83.0,187.0 84.0,188.0 87.0,188.0 86.0,187.0 85.0,188.0 85.0,189.0 84.0,190.0 85.0,191.0 86.0,191.0 87.0,193.0 89.0,192.0 90.0,190.0 89.0,191.0 89.0,192.0 90.0,192.0 91.0,193.0 92.0,194.0 93.0,193.0 95.0,192.0 95.0,190.0 94.0,189.0 94.0,190.0 95.0,190.0 96.0,189.0 96.0,189.0 95.0,190.0 95.0,191.0 96.0,191.0 98.0,193.0 100.0,192.0 101.0,190.0 100.0,191.0 100.0,192.0 101.0,192.0 102.0,193.0 103.0,194.0 103.0,193.0 106.0,192.0 106.0,190.0 105.0,189.0 105.0,190.0 106.0,190.0 107.0,189.0 108.0,189.0 109.0,189.0 108.0,188.0 109.0,185.0 107.0,184.0 105.0,184.0 106.0,185.0 107.0,184.0 107.0,183.0 108.0,184.0 110.0,184.0 111.0,182.0 114.0,179.0 113.0,174.0 109.0,173.0 110.0,175.0 112.0,174.0 113.0,172.0 115.0,172.0 116.0,169.0 114.0,168.0 113.0,164.0 109.0,162.0 106.0,166.0 108.0,165.0 108.0,163.0 107.0,161.0 107.0,159.0 106.0,158.0 104.0,158.0 99.0,157.0 96.0,160.0 97.0,164.0 98.0,162.0 96.0,161.0 94.0,161.0 93.0,162.0 94.0,163.0 95.0,163.0 96.0,165.0 98.0,164.0 99.0,162.0 98.0,163.0 99.0,164.0 100.0,164.0 100.0,165.0 101.0,166.0 102.0,165.0 104.0,164.0 104.0,162.0 103.0,161.0 103.0,162.0 104.0,162.0 105.0,161.0 106.0,162.0 107.0,161.0 107.0,160.0 107.0,158.0 106.0,156.0 103.0,157.0 105.0,157.0 105.0,156.0 105.0,155.0 105.0,156.0 106.0,156.0 107.0,156.0 109.0,155.0 110.0,153.0 108.0,151.0 109.0,152.0 110.0,153.0 110.0,152.0 111.0,152.0 112.0,151.0 112.0,150.0 113.0,148.0 111.0,147.0 109.0,147.0 110.0,147.0 111.0,147.0 110.0,146.0 111.0,145.0 111.0,144.0 110.0,143.0 108.0,142.0 106.0,143.0 106.0,145.0 106.0,144.0 106.0,143.0 105.0,143.0 107.0,142.0 108.0,140.0 106.0,138.0 105.0,134.0 101.0,133.0 98.0,136.0 100.0,135.0 100.0,133.0 99.0,132.0 99.0,130.0 98.0,128.0 96.0,129.0 91.0,127.0 88.0,131.0 89.0,135.0 90.0,133.0 88.0,131.0 86.0,132.0 85.0,130.0 83.0,131.0 82.0,133.0 79.0,136.0 80.0,140.0 84.0,141.0 83.0,140.0 81.0,140.0 80.0,143.0 80.0,144.0 81.0,144.0 82.0,143.0 84.0,143.0 85.0,140.0 83.0,139.0 84.0,140.0 85.0,140.0 85.0,139.0 86.0,140.0 87.0,139.0 87.0,138.0 88.0,136.0 86.0,134.0 84.0,135.0 85.0,135.0 86.0,134.0 85.0,133.0 86.0,132.0 86.0,131.0 85.0,131.0 83.0,129.0 81.0,130.0 81.0,132.0 81.0,131.0 81.0,130.0 80.0,130.0 " style="fill:#f0aa32;stroke:rgb(140,70,0);stroke-width:2"/>
<polyline points="80.0,130.0 83.0,128.0 83.0,125.0 80.0,124.0 77.0,118.0 71.0,118.0 68.0,124.0 70.0,122.0 70.0,119.0 68.0,118.0 68.0,114.0 65.0,113.0 62.0,114.0 56.0,114.0 53.0,120.0 56.0,125.0 56.0,122.0 53.0,121.0 50.0,122.0 50.0,122.0 48.0,121.0 45.0,122.0 45.0,125.0 42.0,131.0 45.0,136.0 51.0,136.0 49.0,134.0 46.0,136.0 46.0,139.0 46.0,139.0 46.0,139.0 43.0,134.0 36.0,134.0 33.0,139.0 23.0,145.0 23.0,158.0 33.0,164.0 30.0,159.0 24.0,159.0 21.0,164.0 21.0,164.0 21.0,164.0 21.0,164.0 15.0,164.0 11.0,170.0 15.0,175.0 15.0,175.0 15.0,187.0 25.0,194.0 36.0,187.0 36.0,187.0 30.0,187.0 27.0,193.0 30.0,198.0 30.0,198.0 27.0,204.0 30.0,209.0 36.0,209.0 47.0,215.0 58.0,209.0 58.0,197.0 55.0,202.0 58.0,207.0 64.0,207.0 64.0,207.0 67.0,206.0 67.0,203.0 64.0,201.0 61.0,196.0 55.0,196.0 52.0,201.0 54.0,200.0 54.0,197.0 52.0,195.0 52.0,195.0 52.0,192.0 49.0,190.0 46.0,192.0 40.0,192.0 37.0,197.0 40.0,203.0 40.0,200.0 37.0,198.0 35.0,200.0 32.0,198.0 29.0,200.0 29.0,203.0 26.0,208.0 29.0,213.0 35.0,213.0 33.0,212.0 30.0,213.0 30.0,217.0 30.0,217.0 30.0,217.0 30.0,217.0 30.0,217.0 30.0,217.0 30.0,217.0 30.0,213.0 27.0,212.0 25.0,213.0 18.0,213.0 15.0,219.0 18.0,224.0 18.0,221.0 16.0,220.0 13.0,221.0 10.0,220.0 8.0,221.0 8.0,224.0 4.0,230.0 8.0,235.0 14.0,235.0 11.0,234.0 8.0,235.0 8.0,238.0 8.0,238.0 6.0,240.0 6.0,243.0 8.0,245.0 11.0,250.0 18.0,250.0 21.0,245.0 18.0,246.0 18.0,249.0 21.0,251.0 21.0,251.0 15.0,251.0 11.0,256.0 15.0,262.0 15.0,274.0 25.0,280.0 36.0,274.0 36.0,274.0 30.0,274.0 27.0,279.0 30.0,285.0 30.0,285.0 27.0,290.0 30.0,296.0 36.0,296.0 47.0,302.0 58.0,296.0 58.0,283.0 55.0,289.0 58.0,294.0 64.0,294.0 67.0,299.0 74.0,299.0 77.0,294.0 87.0,288.0 87.0,275.0 77.0,269.0 80.0,274.0 86.0,274.0 89.0,269.0 89.0,269.0 89.0,266.0 86.0,264.0 84.0,266.0 77.0,266.0 74.0,271.0 77.0,277.0 77.0,274.0 75.0,272.0 72.0,274.0 69.0,272.0 67.0,274.0 67.0,277.0 64.0,282.0 67.0,288.0 73.0,288.0 70.0,286.0 68.0,288.0 68.0,291.0 65.0,292.0 65.0,295.0 68.0,297.0 71.0,302.0 77.0,302.0 80.0,297.0 77.0,299.0 77.0,302.0 80.0,303.0 77.0,302.0 75.0,303.0 75.0,306.0 71.0,312.0 75.0,317.0 81.0,317.0 78.0,316.0 75.0,317.0 75.0,320.0 73.0,322.0 73.0,325.0 75.0,327.0 79.0,332.0 85.0,332.0 88.0,327.0 85.0,328.0 85.0,331.0 88.0,333.0 88.0,336.0 91.0,337.0 93.0,336.0 100.0,336.0 103.0,330.0 100.0,325.0 100.0,328.0 102.0,330.0 105.0,328.0 102.0,334.0 105.0,339.0 111.0,339.0 122.0,345.0 133.0,339.0 133.0,327.0 130.0,332.0 133.0,337.0 139.0,337.0 142.0,343.0 149.0,343.0 152.0,337.0 162.0,331.0 162.0,319.0 152.0,312.0 155.0,318.0 161.0,318.0 164.0,312.0 170.0,312.0 174.0,307.0 170.0,302.0 170.0,289.0 160.0,283.0 149.0,289.0 155.0,289.0 158.0,284.0 155.0,278.0 152.0,277.0 150.0,278.0 150.0,281.0 146.0,287.0 150.0,292.0 156.0,292.0 153.0,291.0 150.0,292.0 150.0,295.0 148.0,297.0 148.0,300.0 150.0,302.0 154.0,307.0 160.0,307.0 163.0,302.0 160.0,303.0 160.0,306.0 163.0,308.0 163.0,311.0 166.0,312.0 168.0,311.0 175.0,311.0 178.0,305.0 175.0,300.0 175.0,303.0 177.0,305.0 180.0,303.0 177.0,302.0 175.0,303.0 175.0,306.0 171.0,312.0 175.0,317.0 181.0,317.0 178.0,316.0 175.0,317.0 175.0,320.0 173.0,322.0 173.0,325.0 175.0,327.0 179.0,332.0 185.0,332.0 188.0,327.0 185.0,328.0 185.0,331.0 188.0,333.0 188.0,336.0 191.0,337.0 193.0,336.0 200.0,336.0 203.0,330.0 200.0,325.0 200.0,328.0 202.0,330.0 205.0,328.0 202.0,334.0 205.0,339.0 211.0,339.0 222.0,345.0 233.0,339.0 233.0,327.0 230.0,332.0 233.0,337.0 239.0,337.0 242.0,343.0 249.0,343.0 252.0,337.0 262.0,331.0 262.0,319.0 252.0,312.0 255.0,318.0 261.0,318.0 264.0,312.0 270.0,312.0 274.0,307.0 270.0,302.0 270.0,289.0 260.0,283.0 249.0,289.0 255.0,289.0 258.0,284.0 255.0,278.0 252.0,277.0 250.0,278.0 250.0,281.0 246.0,287.0 250.0,292.0 256.0,292.0 253.0,291.0 250.0,292.0 250.0,295.0 248.0,297.0 248.0,300.0 250.0,302.0 254.0,307.0 260.0,307.0 263.0,302.0 260.0,303.0 260.0,306.0 263.0,308.0 263.0,311.0 266.0,312.0 268.0,311.0 275.0,311.0 278.0,305.0 275.0,300.0 275.0,303.0 277.0,305.0 280.0,303.0 277.0,305.0 277.0,308.0 280.0,309.0 283.0,315.0 289.0,315.0 292.0,309.0 290.0,311.0 290.0,314.0 292.0,316.0 292.0,319.0 295.0,320.0 298.0,319.0 304.0,319.0 307.0,313.0 304.0,308.0 304.0,311.0 307.0,313.0 310.0,311.0 312.0,313.0 315.0,311.0 315.0,308.0 318.0,303.0 315.0,297.0 309.0,297.0 311.0,299.0 314.0,297.0 314.0,294.0 317.0,299.0 324.0,299.0 327.0,294.0 337.0,288.0 337.0,275.0 327.0,269.0 330.0,274.0 336.0,274.0 339.0,269.0 345.0,269.0 349.0,264.0 345.0,258.0 345.0,246.0 335.0,239.0 324.0,246.0 330.0,246.0 333.0,240.0 330.0,235.0 333.0,229.0 330.0,224.0 324.0,224.0 313.0,218.0 302.0,224.0 302.0,237.0 305.0,231.0 302.0,226.0 296.0,226.0 293.0,227.0 293.0,230.0 296.0,232.0 299.0,237.0 305.0,237.0 308.0,232.0 306.0,234.0 306.0,237.0 308.0,238.0 308.0,241.0 311.0,243.0 314.0,241.0 320.0,241.0 323.0,236.0 320.0,231.0 320.0,234.0 323.0,235.0 325.0,234.0 328.0,235.0 331.0,234.0 331.0,231.0 334.0,225.0 331.0,220.0 325.0,220.0 327.0,221.0 330.0,220.0 330.0,217.0 330.0,220.0 333.0,221.0 335.0,220.0 342.0,220.0 345.0,214.0 342.0,209.0 342.0,212.0 344.0,214.0 347.0,212.0 350.0,214.0 352.0,212.0 352.0,209.0 356.0,203.0 352.0,198.0 346.0,198.0 349.0,200.0 352.0,198.0 352.0,195.0 354.0,193.0 354.0,190.0 352.0,189.0 349.0,183.0 342.0,183.0 339.0,189.0 342.0,187.0 342.0,184.0 339.0,182.0 345.0,182.0 349.0,177.0 345.0,172.0 345.0,159.0 335.0,153.0 324.0,159.0 330.0,159.0 333.0,154.0 330.0,148.0 333.0,143.0 330.0,137.0 324.0,137.0 313.0,131.0 302.0,137.0 302.0,150.0 305.0,145.0 302.0,139.0 296.0,139.0 293.0,134.0 286.0,134.0 283.0,139.0 273.0,145.0 273.0,158.0 283.0,164.0 280.0,159.0 274.0,159.0 271.0,164.0 271.0,164.0 271.0,167.0 274.0,169.0 276.0,167.0 283.0,167.0 286.0,162.0 283.0,156.0 283.0,160.0 285.0,161.0 288.0,160.0 291.0,161.0 293.0,160.0 293.0,156.0 296.0,151.0 293.0,146.0 287.0,146.0 290.0,147.0 292.0,146.0 292.0,142.0 295.0,141.0 295.0,138.0 292.0,136.0 289.0,131.0 283.0,131.0 280.0,136.0 283.0,135.0 283.0,132.0 280.0,130.0 280.0,133.0 283.0,135.0 285.0,133.0 292.0,133.0 295.0,128.0 292.0,122.0 292.0,125.0 294.0,127.0 297.0,125.0 300.0,127.0 302.0,125.0 302.0,122.0 306.0,117.0 302.0,111.0 296.0,111.0 299.0,113.0 302.0,111.0 302.0,108.0 304.0,107.0 304.0,104.0 302.0,102.0 299.0,97.0 292.0,97.0 289.0,102.0 292.0,101.0 292.0,97.0 289.0,96.0 295.0,96.0 299.0,90.0 295.0,85.0 295.0,73.0 285.0,66.0 274.0,73.0 274.0,73.0 280.0,73.0 283.0,67.0 280.0,62.0 280.0,62.0 283.0,56.0 280.0,51.0 274.0,51.0 263.0,45.0 252.0,51.0 252.0,63.0 255.0,58.0 252.0,53.0 246.0,53.0 243.0,47.0 236.0,47.0 233.0,53.0 223.0,59.0 223.0,71.0 233.0,78.0 230.0,72.0 224.0,72.0 221.0,78.0 221.0,81.0 224.0,82.0 226.0,81.0 233.0,81.0 236.0,75.0 233.0,70.0 233.0,73.0 235.0,75.0 238.0,73.0 241.0,75.0 243.0,73.0 243.0,70.0 246.0,64.0 243.0,59.0 237.0,59.0 240.0,61.0 243.0,59.0 243.0,56.0 245.0,54.0 245.0,51.0 243.0,50.0 239.0,44.0 233.0,44.0 230.0,50.0 233.0,48.0 233.0,45.0 230.0,43.0 230.0,43.0 230.0,43.0 230.0,43.0 230.0,43.0 230.0,43.0 230.0,43.0 230.0,43.0 233.0,45.0 235.0,43.0 235.0,40.0 239.0,35.0 235.0,29.0 229.0,29.0 232.0,31.0 235.0,29.0 235.0,26.0 235.0,26.0 237.0,25.0 237.0,22.0 235.0,20.0 231.0,15.0 225.0,15.0 222.0,20.0 222.0,20.0 225.0,19.0 225.0,15.0 222.0,14.0 222.0,14.0 222.0,11.0 219.0,9.0 217.0,11.0 210.0,11.0 207.0,16.0 210.0,22.0 210.0,22.0 210.0,18.0 208.0,17.0 205.0,18.0 208.0,13.0 205.0,8.0 199.0,8.0 188.0,1.0 177.0,8.0 177.0,20.0 177.0,20.0 180.0,15.0 177.0,9.0 171.0,9.0 171.0,9.0 168.0,4.0 161.0,4.0 158.0,9.0 148.0,15.0 148.0,28.0 158.0,34.0 155.0,29.0 149.0,29.0 146.0,34.0 140.0,34.0 136.0,40.0 140.0,45.0 140.0,58.0 150.0,64.0 161.0,58.0 155.0,58.0 152.0,63.0 155.0,68.0 158.0,70.0 160.0,68.0 160.0,65.0 164.0,60.0 160.0,54.0 154.0,54.0 157.0,56.0 160.0,54.0 160.0,51.0 162.0,50.0 162.0,47.0 160.0,45.0 156.0,40.0 150.0,40.0 147.0,45.0 150.0,44.0 150.0,40.0 147.0,39.0 147.0,36.0 144.0,34.0 142.0,36.0 135.0,36.0 132.0,41.0 135.0,47.0 135.0,43.0 133.0,42.0 130.0,43.0 130.0,43.0 133.0,42.0 133.0,39.0 130.0,37.0 127.0,32.0 121.0,32.0 118.0,37.0 120.0,36.0 120.0,32.0 118.0,31.0 118.0,31.0 118.0,28.0 115.0,26.0 112.0,28.0 106.0,28.0 103.0,33.0 106.0,39.0 106.0,35.0 103.0,34.0 100.0,35.0 100.0,35.0 98.0,34.0 95.0,35.0 95.0,39.0 92.0,44.0 95.0,49.0 101.0,49.0 99.0,48.0 96.0,49.0 96.0,53.0 96.0,53.0 96.0,53.0 96.0,53.0 93.0,47.0 86.0,47.0 83.0,53.0 73.0,59.0 73.0,71.0 83.0,78.0 80.0,72.0 74.0,72.0 71.0,78.0 71.0,78.0 65.0,78.0 61.0,83.0 65.0,88.0 65.0,101.0 75.0,107.0 86.0,101.0 80.0,101.0 77.0,106.0 80.0,112.0 77.0,117.0 80.0,123.0 86.0,123.0 97.0,129.0 108.0,123.0 108.0,110.0 105.0,115.0 108.0,121.0 114.0,121.0 114.0,121.0 117.0,119.0 117.0,116.0 114.0,115.0 111.0,109.0 105.0,109.0 102.0,115.0 104.0,113.0 104.0,110.0 102.0,108.0 102.0,105.0 99.0,104.0 96.0,105.0 90.0,105.0 87.0,111.0 90.0,116.0 90.0,113.0 87.0,111.0 85.0,113.0 82.0,111.0 79.0,113.0 79.0,116.0 76.0,121.0 79.0,127.0 85.0,127.0 83.0,125.0 80.0,127.0 80.0,130.0 80.0,130.0 80.0,130.0 80.0,130.0 80.0,130.0 80.0,130.0 80.0,130.0 80.0,130.0 80.0,130.0 80.0,130.0 80.0,127.0 77.0,125.0 75.0,127.0 68.0,127.0 65.0,132.0 68.0,138.0 68.0,135.0 66.0,133.0 63.0,135.0 60.0,133.0 58.0,135.0 58.0,138.0 54.0,143.0 58.0,149.0 64.0,149.0 61.0,147.0 58.0,149.0 58.0,152.0 56.0,153.0 56.0,156.0 58.0,158.0 61.0,163.0 68.0,163.0 71.0,158.0 68.0,159.0 68.0,163.0 71.0,164.0 65.0,164.0 61.0,170.0 65.0,175.0 65.0,187.0 75.0,194.0 86.0,187.0 80.0,187.0 77.0,193.0 80.0,198.0 77.0,204.0 80.0,209.0 86.0,209.0 97.0,215.0 108.0,209.0 108.0,197.0 105.0,202.0 108.0,207.0 114.0,207.0 117.0,213.0 124.0,213.0 127.0,207.0 137.0,201.0 137.0,189.0 127.0,182.0 130.0,188.0 136.0,188.0 139.0,182.0 139.0,182.0 139.0,179.0 136.0,178.0 134.0,179.0 127.0,179.0 124.0,185.0 127.0,190.0 127.0,187.0 125.0,185.0 122.0,187.0 119.0,185.0 117.0,187.0 117.0,190.0 114.0,196.0 117.0,201.0 123.0,201.0 120.0,199.0 118.0,201.0 118.0,204.0 115.0,206.0 115.0,209.0 118.0,210.0 121.0,216.0 127.0,216.0 130.0,210.0 127.0,212.0 127.0,215.0 130.0,217.0 127.0,215.0 125.0,217.0 125.0,220.0 121.0,225.0 125.0,231.0 131.0,231.0 128.0,229.0 125.0,231.0 125.0,234.0 123.0,235.0 123.0,238.0 125.0,240.0 129.0,245.0 135.0,245.0 138.0,240.0 135.0,241.0 135.0,245.0 138.0,246.0 138.0,249.0 141.0,251.0 143.0,249.0 150.0,249.0 153.0,244.0 150.0,238.0 150.0,242.0 152.0,243.0 155.0,242.0 152.0,247.0 155.0,252.0 161.0,252.0 172.0,259.0 183.0,252.0 183.0,240.0 180.0,245.0 183.0,251.0 189.0,251.0 192.0,256.0 199.0,256.0 202.0,251.0 212.0,245.0 212.0,232.0 202.0,226.0 205.0,231.0 211.0,231.0 214.0,226.0 220.0,226.0 224.0,220.0 220.0,215.0 220.0,202.0 210.0,196.0 199.0,202.0 205.0,202.0 208.0,197.0 205.0,192.0 202.0,190.0 200.0,192.0 200.0,195.0 196.0,200.0 200.0,206.0 206.0,206.0 203.0,204.0 200.0,206.0 200.0,209.0 198.0,210.0 198.0,213.0 200.0,215.0 204.0,220.0 210.0,220.0 213.0,215.0 210.0,216.0 210.0,220.0 213.0,221.0 213.0,224.0 216.0,226.0 218.0,224.0 225.0,224.0 228.0,219.0 225.0,213.0 225.0,217.0 227.0,218.0 230.0,217.0 227.0,218.0 227.0,221.0 230.0,223.0 233.0,228.0 239.0,228.0 242.0,223.0 240.0,224.0 240.0,228.0 242.0,229.0 242.0,232.0 245.0,234.0 248.0,232.0 254.0,232.0 257.0,227.0 254.0,221.0 254.0,225.0 257.0,226.0 260.0,225.0 262.0,226.0 265.0,225.0 265.0,221.0 268.0,216.0 265.0,211.0 259.0,211.0 261.0,212.0 264.0,211.0 264.0,207.0 267.0,213.0 274.0,213.0 277.0,207.0 287.0,201.0 287.0,189.0 277.0,182.0 280.0,188.0 286.0,188.0 289.0,182.0 295.0,182.0 299.0,177.0 295.0,172.0 295.0,159.0 285.0,153.0 274.0,159.0 280.0,159.0 283.0,154.0 280.0,148.0 283.0,143.0 280.0,137.0 274.0,137.0 263.0,131.0 252.0,137.0 252.0,150.0 255.0,145.0 252.0,139.0 246.0,139.0 243.0,141.0 243.0,144.0 246.0,145.0 249.0,151.0 255.0,151.0 258.0,145.0 256.0,147.0 256.0,150.0 258.0,152.0 258.0,155.0 261.0,156.0 264.0,155.0 270.0,155.0 273.0,149.0 270.0,144.0 270.0,147.0 273.0,149.0 275.0,147.0 278.0,149.0 281.0,147.0 281.0,144.0 284.0,139.0 281.0,133.0 275.0,133.0 277.0,135.0 280.0,133.0 280.0,130.0 283.0,132.0 285.0,130.0 285.0,127.0 289.0,121.0 285.0,116.0 279.0,116.0 282.0,118.0 285.0,116.0 285.0,113.0 287.0,111.0 287.0,108.0 285.0,107.0 281.0,101.0 275.0,101.0 272.0,107.0 275.0,105.0 275.0,102.0 272.0,100.0 272.0,97.0 269.0,96.0 267.0,97.0 260.0,97.0 257.0,103.0 260.0,108.0 260.0,105.0 258.0,103.0 255.0,105.0 258.0,100.0 255.0,94.0 249.0,94.0 238.0,88.0 227.0,94.0 227.0,107.0 230.0,101.0 227.0,96.0 221.0,96.0 218.0,90.0 211.0,90.0 208.0,96.0 198.0,102.0 198.0,115.0 208.0,121.0 205.0,115.0 199.0,115.0 196.0,121.0 190.0,121.0 186.0,126.0 190.0,132.0 190.0,144.0 200.0,150.0 211.0,144.0 205.0,144.0 202.0,150.0 205.0,155.0 208.0,157.0 210.0,155.0 210.0,152.0 214.0,146.0 210.0,141.0 204.0,141.0 207.0,143.0 210.0,141.0 210.0,138.0 212.0,136.0 212.0,133.0 210.0,132.0 206.0,126.0 200.0,126.0 197.0,132.0 200.0,130.0 200.0,127.0 197.0,125.0 197.0,122.0 194.0,121.0 192.0,122.0 185.0,122.0 182.0,128.0 185.0,133.0 185.0,130.0 183.0,128.0 180.0,130.0 180.0,130.0 183.0,128.0 183.0,125.0 180.0,124.0 177.0,118.0 171.0,118.0 168.0,124.0 170.0,122.0 170.0,119.0 168.0,117.0 168.0,114.0 165.0,113.0 162.0,114.0 156.0,114.0 153.0,120.0 156.0,125.0 156.0,122.0 153.0,121.0 150.0,122.0 148.0,121.0 145.0,122.0 145.0,125.0 142.0,131.0 145.0,136.0 151.0,136.0 149.0,134.0 146.0,136.0 146.0,139.0 143.0,134.0 136.0,134.0 133.0,139.0 123.0,145.0 123.0,158.0 133.0,164.0 130.0,159.0 124.0,159.0 121.0,164.0 115.0,164.0 111.0,170.0 115.0,175.0 115.0,187.0 125.0,194.0 136.0,187.0 130.0,187.0 127.0,193.0 130.0,198.0 127.0,204.0 130.0,209.0 136.0,209.0 147.0,215.0 158.0,209.0 158.0,197.0 155.0,202.0 158.0,207.0 164.0,207.0 167.0,206.0 167.0,203.0 164.0,201.0 161.0,196.0 155.0,196.0 152.0,201.0 154.0,200.0 154.0,197.0 152.0,195.0 152.0,192.0 149.0,190.0 146.0,192.0 140.0,192.0 137.0,197.0 140.0,203.0 140.0,200.0 137.0,198.0 135.0,200.0 132.0,198.0 129.0,200.0 129.0,203.0 126.0,208.0 129.0,213.0 135.0,213.0 133.0,212.0 130.0,213.0 130.0,217.0 130.0,217.0 130.0,213.0 127.0,212.0 125.0,213.0 118.0,213.0 115.0,219.0 118.0,224.0 118.0,221.0 116.0,220.0 113.0,221.0 110.0,220.0 108.0,221.0 108.0,224.0 104.0,230.0 108.0,235.0 114.0,235.0 111.0,234.0 108.0,235.0 108.0,238.0 106.0,240.0 106.0,243.0 108.0,245.0 111.0,250.0 118.0,250.0 121.0,245.0 118.0,246.0 118.0,249.0 121.0,251.0 115.0,251.0 111.0,256.0 115.0,262.0 115.0,274.0 125.0,280.0 136.0,274.0 130.0,274.0 127.0,279.0 130.0,285.0 127.0,290.0 130.0,296.0 136.0,296.0 147.0,302.0 158.0,296.0 158.0,283.0 155.0,289.0 158.0,294.0 164.0,294.0 167.0,299.0 174.0,299.0 177.0,294.0 187.0,288.0 187.0,275.0 177.0,269.0 180.0,274.0 186.0,274.0 189.0,269.0 189.0,266.0 186.0,264.0 184.0,266.0 177.0,266.0 174.0,271.0 177.0,277.0 177.0,274.0 175.0,272.0 172.0,274.0 169.0,272.0 167.0,274.0 167.0,277.0 164.0,282.0 167.0,288.0 173.0,288.0 170.0,286.0 167.0,288.0 167.0,291.0 165.0,292.0 165.0,295.0 167.0,297.0 171.0,302.0 177.0,302.0 180.0,297.0 177.0,299.0 177.0,302.0 180.0,303.0 180.0,303.0 180.0,303.0 177.0,305.0 177.0,308.0 180.0,309.0 183.0,315.0 189.0,315.0 192.0,309.0 190.0,311.0 190.0,314.0 192.0,316.0 192.0,319.0 195.0,320.0 198.0,319.0 204.0,319.0 207.0,313.0 204.0,308.0 204.0,311.0 207.0,313.0 210.0,311.0 212.0,313.0 215.0,311.0 215.0,308.0 218.0,303.0 215.0,297.0 209.0,297.0 211.0,299.0 214.0,297.0 214.0,294.0 217.0,299.0 224.0,299.0 227.0,294.0 237.0,288.0 237.0,275.0 227.0,269.0 230.0,274.0 236.0,274.0 239.0,269.0 245.0,269.0 249.0,264.0 245.0,258.0 245.0,246.0 235.0,239.0 224.0,246.0 230.0,246.0 233.0,240.0 230.0,235.0 233.0,229.0 230.0,224.0 224.0,224.0 213.0,218.0 202.0,224.0 202.0,237.0 205.0,231.0 202.0,226.0 196.0,226.0 193.0,227.0 193.0,230.0 196.0,232.0 199.0,237.0 205.0,237.0 208.0,232.0 206.0,234.0 206.0,237.0 208.0,238.0 208.0,241.0 211.0,243.0 214.0,241.0 220.0,241.0 223.0,236.0 220.0,231.0 220.0,234.0 223.0,235.0 225.0,234.0 228.0,235.0 231.0,234.0 231.0,231.0 234.0,225.0 231.0,220.0 225.0,220.0 227.0,221.0 230.0,220.0 230.0,217.0 230.0,220.0 233.0,221.0 235.0,220.0 242.0,220.0 245.0,214.0 242.0,209.0 242.0,212.0 244.0,214.0 247.0,212.0 250.0,214.0 252.0,212.0 252.0,209.0 256.0,203.0 252.0,198.0 246.0,198.0 249.0,200.0 252.0,198.0 252.0,195.0 254.0,193.0 254.0,190.0 252.0,189.0 249.0,183.0 242.0,183.0 239.0,189.0 242.0,187.0 242.0,184.0 239.0,182.0 245.0,182.0 249.0,177.0 245.0,172.0 245.0,159.0 235.0,153.0 224.0,159.0 230.0,159.0 233.0,154.0 230.0,148.0 233.0,143.0 230.0,137.0 224.0,137.0 213.0,131.0 202.0,137.0 202.0,150.0 205.0,145.0 202.0,139.0 196.0,139.0 193.0,134.0 186.0,134.0 183.0,139.0 173.0,145.0 173.0,158.0 183.0,164.0 180.0,159.0 174.0,159.0 171.0,164.0 171.0,164.0 171.0,167.0 174.0,169.0 176.0,167.0 183.0,167.0 186.0,162.0 183.0,156.0 183.0,160.0 185.0,161.0 188.0,160.0 191.0,161.0 193.0,160.0 193.0,156.0 196.0,151.0 193.0,146.0 187.0,146.0 190.0,147.0 192.0,146.0 192.0,142.0 195.0,141.0 195.0,138.0 192.0,136.0 189.0,131.0 183.0,131.0 180.0,136.0 183.0,135.0 183.0,132.0 180.0,130.0 183.0,132.0 185.0,130.0 185.0,127.0 189.0,121.0 185.0,116.0 179.0,116.0 182.0,118.0 185.0,116.0 185.0,113.0 187.0,111.0 187.0,108.0 185.0,107.0 181.0,101.0 175.0,101.0 172.0,107.0 175.0,105.0 175.0,102.0 172.0,100.0 172.0,97.0 169.0,96.0 167.0,97.0 160.0,97.0 157.0,103.0 160.0,108.0 160.0,105.0 158.0,103.0 155.0,105.0 158.0,100.0 155.0,94.0 149.0,94.0 138.0,88.0 127.0,94.0 127.0,107.0 130.0,101.0 127.0,96.0 121.0,96.0 118.0,90.0 111.0,90.0 108.0,96.0 98.0,102.0 98.0,115.0 108.0,121.0 105.0,115.0 99.0,115.0 96.0,121.0 90.0,121.0 86.0,126.0 90.0,132.0 90.0,144.0 100.0,150.0 111.0,144.0 105.0,144.0 102.0,150.0 105.0,155.0 105.0,155.0 108.0,157.0 110.0,155.0 110.0,152.0 114.0,146.0 110.0,141.0 104.0,141.0 107.0,143.0 110.0,141.0 110.0,138.0 112.0,136.0 112.0,133.0 110.0,132.0 106.0,126.0 100.0,126.0 97.0,132.0 100.0,130.0 100.0,127.0 97.0,125.0 97.0,122.0 94.0,121.0 92.0,122.0 85.0,122.0 82.0,128.0 85.0,133.0 85.0,130.0 83.0,128.0 80.0,130.0 " style="fill:#f0aa32;stroke:rgb(140,70,0);stroke-width:2"/>
</svg>